<?xml version="1.0" encoding="UTF-8" standalone="no"?>
<svg
   viewBox="0 0 512 512"
   style="height: 512px; width: 512px;"
   version="1.1"
   id="svg24"
   sodipodi:docname="1dice.svg"
   inkscape:version="1.1.2 (0a00cf5339, 2022-02-04)"
   xmlns:inkscape="http://www.inkscape.org/namespaces/inkscape"
   xmlns:sodipodi="http://sodipodi.sourceforge.net/DTD/sodipodi-0.dtd"
   xmlns="http://www.w3.org/2000/svg"
   xmlns:svg="http://www.w3.org/2000/svg">
  <defs
     id="defs28" />
  <sodipodi:namedview
     id="namedview26"
     pagecolor="#ffffff"
     bordercolor="#666666"
     borderopacity="1.0"
     inkscape:pageshadow="2"
     inkscape:pageopacity="0.0"
     inkscape:pagecheckerboard="0"
     showgrid="false"
     inkscape:zoom="1.6992188"
     inkscape:cx="256"
     inkscape:cy="256"
     inkscape:window-width="1920"
     inkscape:window-height="1052"
     inkscape:window-x="0"
     inkscape:window-y="0"
     inkscape:window-maximized="1"
     inkscape:current-layer="svg24" />
  <g
     class=""
     id="g22"
     style="fill:#000000">
    <g
       id="g20"
       style="fill:#000000">
      <path
         d="m 255.76,44.764 c -6.176,0 -12.353,1.384 -17.137,4.152 L 85.87,137.276 c -9.57,5.536 -9.57,14.29 0,19.826 l 152.753,88.36 c 9.57,5.536 24.703,5.536 34.272,0 l 152.753,-88.36 c 9.57,-5.535 9.57,-14.29 0,-19.825 L 272.895,48.917 c -4.785,-2.77 -10.96,-4.153 -17.135,-4.153 z"
         class=""
         fill="#4a4a4a"
         fill-opacity="1"
         id="path2"
         style="fill:#000000" />
      <path
         d="m 256.686,127.619 c 24.595,0.215 39.573,16.148 26.962,28.679 -1.35,1.341 -2.974,2.578 -4.835,3.683 -17.253,10.403 -47.015,5.822 -53.571,-8.245 -3.092,-6.633 0.117,-13.74 8.383,-18.567 6.107,-3.623 14.425,-5.625 23.06,-5.55 z"
         class=""
         fill="#4a4a4a"
         fill-opacity="1"
         id="path4"
         style="fill:#000000" />
      <path
         d="m 75.67,173.84 c -5.753,-0.155 -9.664,4.336 -9.664,12.28 v 157.696 c 0,11.052 7.57,24.163 17.14,29.69 l 146.93,84.848 c 9.57,5.526 17.14,1.156 17.14,-9.895 V 290.76 c 0,-11.052 -7.57,-24.16 -17.14,-29.688 L 83.146,176.225 c -2.69,-1.555 -5.225,-2.327 -7.476,-2.387 z"
         class=""
         fill="#4a4a4a"
         fill-opacity="1"
         id="path6"
         style="fill:#000000" />
      <path
         d="m 436.443,173.842 c -2.25,0.06 -4.783,0.83 -7.474,2.385 l -146.935,84.847 c -9.57,5.527 -17.14,18.638 -17.14,29.69 v 157.7 c 0,11.05 7.57,15.418 17.14,9.89 L 428.97,373.51 c 9.57,-5.527 17.137,-18.636 17.137,-29.688 v -157.7 c 0,-7.942 -3.91,-12.432 -9.664,-12.278 z"
         class=""
         fill="#4a4a4a"
         fill-opacity="1"
         id="path8"
         style="fill:#000000" />
      <path
         d="m 89.297,195.77 c 14.97,-1.038 33.757,21.763 33.818,41.043 0,0.047 0,0.093 0,0.14 0.02,19.257 -18.717,20.492 -33.727,2.223 -6.983,-8.498 -11.283,-19.256 -11.273,-28.203 -0.017,-8.929 4.244,-14.722 11.182,-15.203 z"
         class=""
         fill="#4a4a4a"
         fill-opacity="1"
         id="path10"
         style="fill:#000000" />
      <path
         d="m 310.817,260.434 c 6.938,0.481 11.2,6.274 11.183,15.203 -0.02,19.257 -18.783,42.092 -33.773,41.104 -6.94,-0.457 -11.217,-6.219 -11.227,-15.124 -0.036,-19.224 18.691,-42.107 33.709,-41.19 0.036,0.002 0.073,0.004 0.109,0.007 z"
         class=""
         fill="#4a4a4a"
         fill-opacity="1"
         id="path12"
         style="fill:#000000" />
      <path
         d="m 145.296,289.1 c 14.97,-1.038 33.757,21.763 33.818,41.043 0,0.047 0,0.093 0,0.14 -0.021,19.233 -18.784,20.404 -33.773,2.107 -6.941,-8.471 -11.218,-19.171 -11.227,-28.087 -0.017,-8.929 4.244,-14.722 11.182,-15.203 z"
         class=""
         fill="#4a4a4a"
         fill-opacity="1"
         id="path14"
         style="fill:#000000" />
      <path
         d="m 422.819,318.48 c 6.937,0.482 11.198,6.275 11.181,15.204 -0.02,19.257 -18.783,42.092 -33.773,41.104 -6.94,-0.457 -11.217,-6.219 -11.227,-15.124 -0.037,-19.223 18.69,-42.107 33.708,-41.191 0.037,0.002 0.073,0.004 0.11,0.007 z"
         class=""
         fill="#4a4a4a"
         fill-opacity="1"
         id="path16"
         style="fill:#000000" />
      <path
         d="m 201.299,383.143 c 14.97,-1.037 33.757,21.765 33.817,41.044 0,0.047 0,0.093 0,0.139 0.02,19.257 -18.717,20.492 -33.727,2.223 -6.983,-8.498 -11.283,-19.256 -11.273,-28.203 -0.017,-8.929 4.244,-14.722 11.182,-15.203 z"
         class="selected"
         fill="#4a4a4a"
         fill-opacity="1"
         id="path18"
         style="fill:#000000" />
    </g>
  </g>
</svg>
