<?xml version="1.0" encoding="UTF-8" standalone="no"?>
<svg
   viewBox="0 0 512 512"
   style="height: 512px; width: 512px;"
   version="1.1"
   id="svg24"
   sodipodi:docname="1dice.svg"
   inkscape:version="1.1.2 (0a00cf5339, 2022-02-04)"
   xmlns:inkscape="http://www.inkscape.org/namespaces/inkscape"
   xmlns:sodipodi="http://sodipodi.sourceforge.net/DTD/sodipodi-0.dtd"
   xmlns="http://www.w3.org/2000/svg"
   xmlns:svg="http://www.w3.org/2000/svg">
  <defs
     id="defs28" />
  <sodipodi:namedview
     id="namedview26"
     pagecolor="#ffffff"
     bordercolor="#666666"
     borderopacity="1.0"
     inkscape:pageshadow="2"
     inkscape:pageopacity="0.0"
     inkscape:pagecheckerboard="0"
     showgrid="false"
     inkscape:zoom="1.8295212"
     inkscape:cx="265.64327"
     inkscape:cy="242.13986"
     inkscape:window-width="1920"
     inkscape:window-height="1052"
     inkscape:window-x="0"
     inkscape:window-y="0"
     inkscape:window-maximized="1"
     inkscape:current-layer="svg24" />
  <g
     class=""
     id="g22"
     style="fill:#000000;stroke:#feffff;stroke-width:3;stroke-miterlimit:4;stroke-dasharray:none;stroke-opacity:1">
    <g
       id="g20"
       style="fill:#000000;stroke:#feffff;stroke-width:3;stroke-miterlimit:4;stroke-dasharray:none;stroke-opacity:1">
      <path
         d="m 255.76,44.764 c -6.176,0 -12.353,1.384 -17.137,4.152 L 85.87,137.276 c -9.57,5.536 -9.57,14.29 0,19.826 l 152.753,88.36 c 9.57,5.536 24.703,5.536 34.272,0 l 152.753,-88.36 c 9.57,-5.535 9.57,-14.29 0,-19.825 L 272.895,48.917 c -4.785,-2.77 -10.96,-4.153 -17.135,-4.153 z"
         class=""
         fill="#4a4a4a"
         fill-opacity="1"
         id="path2"
         style="fill:#000000;stroke:#feffff;stroke-width:3;stroke-miterlimit:4;stroke-dasharray:none;stroke-opacity:1" />
      <path
         d="m 75.67,173.84 c -5.753,-0.155 -9.664,4.336 -9.664,12.28 v 157.696 c 0,11.052 7.57,24.163 17.14,29.69 l 146.93,84.848 c 9.57,5.526 17.14,1.156 17.14,-9.895 V 290.76 c 0,-11.052 -7.57,-24.16 -17.14,-29.688 L 83.146,176.225 c -2.69,-1.555 -5.225,-2.327 -7.476,-2.387 z"
         class=""
         fill="#4a4a4a"
         fill-opacity="1"
         id="path6"
         style="fill:#000000;stroke:#feffff;stroke-width:3;stroke-miterlimit:4;stroke-dasharray:none;stroke-opacity:1" />
      <path
         d="m 436.443,173.842 c -2.25,0.06 -4.783,0.83 -7.474,2.385 l -146.935,84.847 c -9.57,5.527 -17.14,18.638 -17.14,29.69 v 157.7 c 0,11.05 7.57,15.418 17.14,9.89 L 428.97,373.51 c 9.57,-5.527 17.137,-18.636 17.137,-29.688 v -157.7 c 0,-7.942 -3.91,-12.432 -9.664,-12.278 z"
         class=""
         fill="#4a4a4a"
         fill-opacity="1"
         id="path8"
         style="fill:#000000;stroke:#feffff;stroke-width:3;stroke-miterlimit:4;stroke-dasharray:none;stroke-opacity:1" />
    </g>
  </g>
</svg>
