<?xml version="1.0" encoding="UTF-8" standalone="no"?>
<svg
   viewBox="0 0 512 512"
   style="height: 512px; width: 512px;"
   version="1.1"
   id="svg42"
   sodipodi:docname="2dice.svg"
   inkscape:version="1.1.2 (0a00cf5339, 2022-02-04)"
   xmlns:inkscape="http://www.inkscape.org/namespaces/inkscape"
   xmlns:sodipodi="http://sodipodi.sourceforge.net/DTD/sodipodi-0.dtd"
   xmlns="http://www.w3.org/2000/svg"
   xmlns:svg="http://www.w3.org/2000/svg">
  <defs
     id="defs46" />
  <sodipodi:namedview
     id="namedview44"
     pagecolor="#ffffff"
     bordercolor="#666666"
     borderopacity="1.0"
     inkscape:pageshadow="2"
     inkscape:pageopacity="0.0"
     inkscape:pagecheckerboard="0"
     showgrid="false"
     inkscape:zoom="1.7045444"
     inkscape:cx="270.4535"
     inkscape:cy="176.58677"
     inkscape:window-width="1920"
     inkscape:window-height="1052"
     inkscape:window-x="0"
     inkscape:window-y="0"
     inkscape:window-maximized="1"
     inkscape:current-layer="svg42" />
  <g
     class=""
     id="g40"
     style="fill:#000000;stroke:#ffffff;stroke-width:3;stroke-miterlimit:4;stroke-dasharray:none;stroke-opacity:1">
    <g
       id="g38"
       style="fill:#000000;stroke:#ffffff;stroke-width:3;stroke-miterlimit:4;stroke-dasharray:none;stroke-opacity:1">
      <path
         d="M 138.798,35.342 28.73,114.268 124.507,143.363 235.812,56.273 138.798,35.343 Z"
         class=""
         fill="#4a4a4a"
         fill-opacity="1"
         id="path2"
         style="fill:#000000;stroke:#ffffff;stroke-width:3;stroke-miterlimit:4;stroke-dasharray:none;stroke-opacity:1" />
      <path
         d="m 251.784,66.424 -118.047,89.96 51.07,131.102 8.534,-7.455 c 14.50914,-52.95149 9.20211,-34.15555 20.82,-77.291 0.096,-0.354 0.214,-0.701 0.353,-1.04 0.019,-0.043 0.038,-0.085 0.058,-0.128 0.097,-0.233 0.204,-0.461 0.32,-0.685 0.029,-0.051 0.059,-0.102 0.09,-0.153 0.115,-0.213 0.238,-0.422 0.37,-0.625 0.166,-0.25 0.344,-0.491 0.534,-0.723 0.022,-0.025 0.044,-0.049 0.066,-0.074 0.171,-0.206 0.351,-0.404 0.54,-0.594 0.207,-0.208 0.424,-0.406 0.65,-0.593 0.001,-0.001 0.003,-0.001 0.004,-0.002 0.15,-0.119 0.303,-0.233 0.46,-0.342 0.087,-0.067 0.176,-0.133 0.266,-0.197 0.164,-0.105 0.331,-0.205 0.502,-0.3 0.089,-0.054 0.179,-0.106 0.27,-0.157 0.145,-0.073 0.291,-0.143 0.44,-0.208 0.125,-0.062 0.252,-0.122 0.38,-0.178 0.144,-0.054 0.29,-0.105 0.437,-0.152 0.135,-0.051 0.272,-0.099 0.41,-0.143 0.134,-0.036 0.269,-0.07 0.404,-0.1 0.156,-0.042 0.312,-0.08 0.47,-0.114 0.169,-0.028 0.339,-0.052 0.51,-0.07 0.123,-0.019 0.246,-0.036 0.37,-0.05 h 0.01 c 0.003,-0.001 0.007,-0.002 0.01,-0.003 26.89917,-3.31594 52.93958,-5.00795 69.142,-5.906 L 251.785,66.42 Z"
         class=""
         fill="#4a4a4a"
         fill-opacity="1"
         id="path4"
         style="fill:#000000;stroke:#ffffff;stroke-width:3;stroke-miterlimit:4;stroke-dasharray:none;stroke-opacity:1"
         sodipodi:nodetypes="cccccccccccccccccccccccccccccccc" />
      <path
         d="m 24.22,131.71 46.992,114.124 94.236,40.38 -45.988,-125.57 -95.24,-28.935 z"
         class=""
         fill="#4a4a4a"
         fill-opacity="1"
         id="path10"
         style="fill:#000000;stroke:#ffffff;stroke-width:3;stroke-miterlimit:4;stroke-dasharray:none;stroke-opacity:1" />
      <path
         d="m 360.376,202.366 -112.102,9.577 113.762,79.926 113.598,-16.956 -115.258,-72.55 z"
         class=""
         fill="#4a4a4a"
         fill-opacity="1"
         id="path16"
         style="fill:#000000;stroke:#ffffff;stroke-width:3;stroke-miterlimit:4;stroke-dasharray:none;stroke-opacity:1" />
      <path
         d="m 228.198,219.835 -41.538,154.188 115.616,99.454 47.147,-168.47 -121.225,-85.17 z"
         class=""
         fill="#4a4a4a"
         fill-opacity="1"
         id="path20"
         style="fill:#000000;stroke:#ffffff;stroke-width:3;stroke-miterlimit:4;stroke-dasharray:none;stroke-opacity:1" />
      <path
         d="M 487.78,291.3 366.9,309.343 320.077,476.659 436.374,444.889 Z"
         class=""
         fill="#4a4a4a"
         fill-opacity="1"
         id="path24"
         style="fill:#000000;stroke:#ffffff;stroke-width:3;stroke-miterlimit:4;stroke-dasharray:none;stroke-opacity:1" />
    </g>
  </g>
</svg>
