<?xml version="1.0" encoding="UTF-8" standalone="no"?>
<svg
   viewBox="0 0 512 512"
   style="height: 512px; width: 512px;"
   version="1.1"
   id="svg42"
   sodipodi:docname="2dice.svg"
   inkscape:version="1.1.2 (0a00cf5339, 2022-02-04)"
   xmlns:inkscape="http://www.inkscape.org/namespaces/inkscape"
   xmlns:sodipodi="http://sodipodi.sourceforge.net/DTD/sodipodi-0.dtd"
   xmlns="http://www.w3.org/2000/svg"
   xmlns:svg="http://www.w3.org/2000/svg">
  <defs
     id="defs46" />
  <sodipodi:namedview
     id="namedview44"
     pagecolor="#ffffff"
     bordercolor="#666666"
     borderopacity="1.0"
     inkscape:pageshadow="2"
     inkscape:pageopacity="0.0"
     inkscape:pagecheckerboard="0"
     showgrid="false"
     inkscape:zoom="1.6992188"
     inkscape:cx="256"
     inkscape:cy="256"
     inkscape:window-width="1920"
     inkscape:window-height="1052"
     inkscape:window-x="0"
     inkscape:window-y="0"
     inkscape:window-maximized="1"
     inkscape:current-layer="svg42" />
  <g
     class=""
     id="g40"
     style="fill:#000000">
    <g
       id="g38"
       style="fill:#000000">
      <path
         d="M 138.798,35.342 28.73,114.268 124.507,143.363 235.812,56.273 138.798,35.343 Z"
         class=""
         fill="#4a4a4a"
         fill-opacity="1"
         id="path2"
         style="fill:#000000" />
      <path
         d="m 251.784,66.424 -118.047,89.96 51.07,131.102 8.534,-7.455 4.23,-15.708 c -5.896,-3.841 -9.654,-12.305 -9.08,-20.45 0.562,-7.894 5.06,-13.509 10.997,-13.727 1.194,-0.044 2.412,0.135 3.62,0.53 1.061,0.353 2.106,0.872 3.113,1.544 l 7.94,-29.48 c 0.096,-0.354 0.214,-0.701 0.353,-1.04 0.019,-0.043 0.038,-0.085 0.058,-0.128 0.097,-0.233 0.204,-0.461 0.32,-0.685 0.029,-0.051 0.059,-0.102 0.09,-0.153 0.115,-0.213 0.238,-0.422 0.37,-0.625 0.166,-0.25 0.344,-0.491 0.534,-0.723 0.022,-0.025 0.044,-0.049 0.066,-0.074 0.171,-0.206 0.351,-0.404 0.54,-0.594 0.207,-0.208 0.424,-0.406 0.65,-0.593 0.001,-0.001 0.003,-0.001 0.004,-0.002 0.15,-0.119 0.303,-0.233 0.46,-0.342 0.087,-0.067 0.176,-0.133 0.266,-0.197 0.164,-0.105 0.331,-0.205 0.502,-0.3 0.089,-0.054 0.179,-0.106 0.27,-0.157 0.145,-0.073 0.291,-0.143 0.44,-0.208 0.125,-0.062 0.252,-0.122 0.38,-0.178 0.144,-0.054 0.29,-0.105 0.437,-0.152 0.135,-0.051 0.272,-0.099 0.41,-0.143 0.134,-0.036 0.269,-0.07 0.404,-0.1 0.156,-0.042 0.312,-0.08 0.47,-0.114 0.169,-0.028 0.339,-0.052 0.51,-0.07 0.123,-0.019 0.246,-0.036 0.37,-0.05 0.003,0 0.007,0 0.01,0 0.003,-0.001 0.007,-0.002 0.01,-0.003 l 33.624,-2.873 c 1.568,-5.848 5.522,-9.592 10.326,-9.777 1.195,-0.044 2.413,0.134 3.622,0.53 3.26,1.077 6.292,3.683 8.527,7.327 L 291.227,190.203 251.785,66.42 Z"
         class=""
         fill="#4a4a4a"
         fill-opacity="1"
         id="path4"
         style="fill:#000000" />
      <path
         d="m 137.25,74.03 c 8.724,0.181 14.076,3.834 12.798,8.734 -1.482,5.688 -11.304,11.06 -21.938,11.998 -10.635,0.938 -18.054,-2.913 -16.57,-8.602 1.48,-5.689 11.303,-11.061 21.938,-12 1.284,-0.113 2.547,-0.156 3.77,-0.13 z"
         class=""
         fill="#4a4a4a"
         fill-opacity="1"
         id="path6"
         style="fill:#000000" />
      <path
         d="m 237.478,97.547 c 0.001,0 0.001,0 0.002,0 1.194,-0.044 2.412,0.135 3.62,0.53 7.38,2.415 12.803,12.237 12.112,21.94 -0.692,9.703 -7.236,15.612 -14.617,13.196 -7.381,-2.414 -12.805,-12.237 -12.114,-21.94 0.563,-7.894 5.061,-13.509 10.998,-13.726 z"
         class=""
         fill="#4a4a4a"
         fill-opacity="1"
         id="path8"
         style="fill:#000000" />
      <path
         d="m 24.22,131.71 46.992,114.124 94.236,40.38 -45.988,-125.57 -95.24,-28.935 z"
         class=""
         fill="#4a4a4a"
         fill-opacity="1"
         id="path10"
         style="fill:#000000" />
      <path
         d="m 172.106,149.14 c 1.195,-0.045 2.413,0.133 3.622,0.528 7.38,2.416 12.801,12.238 12.11,21.94 -0.691,9.703 -7.235,15.612 -14.616,13.197 -7.38,-2.415 -12.803,-12.237 -12.112,-21.94 0.562,-7.893 5.06,-13.508 10.996,-13.726 z"
         class=""
         fill="#4a4a4a"
         fill-opacity="1"
         id="path12"
         style="fill:#000000" />
      <path
         d="m 96.983,162.156 c 5.135,-0.28 12.464,6.238 16.955,15.078 4.83,9.505 4.639,18.229 -0.425,19.485 -5.065,1.254 -13.085,-5.434 -17.913,-14.939 -4.826,-9.501 -4.637,-18.221 0.424,-19.48 0.306,-0.077 0.626,-0.125 0.96,-0.144 z"
         class=""
         fill="#4a4a4a"
         fill-opacity="1"
         id="path14"
         style="fill:#000000" />
      <path
         d="m 360.376,202.366 -112.102,9.577 113.762,79.926 113.598,-16.956 -115.258,-72.55 z"
         class=""
         fill="#4a4a4a"
         fill-opacity="1"
         id="path16"
         style="fill:#000000" />
      <path
         d="m 70.82,212.022 c 5.135,-0.281 12.465,6.237 16.957,15.078 4.829,9.504 4.639,18.227 -0.425,19.484 -5.065,1.254 -13.085,-5.434 -17.913,-14.938 -4.828,-9.503 -4.638,-18.225 0.425,-19.482 0.306,-0.075 0.626,-0.122 0.96,-0.14 z"
         class=""
         fill="#4a4a4a"
         fill-opacity="1"
         id="path18"
         style="fill:#000000" />
      <path
         d="m 228.198,219.835 -41.538,154.188 115.616,99.454 47.147,-168.47 -121.225,-85.17 z"
         class=""
         fill="#4a4a4a"
         fill-opacity="1"
         id="path20"
         style="fill:#000000" />
      <path
         d="m 355.185,231.003 c 6.299,0.117 13.669,1.907 19.693,4.783 10.077,4.813 13.483,11.19 7.607,14.244 -5.875,3.055 -18.807,1.63 -28.886,-3.182 -10.078,-4.812 -13.485,-11.189 -7.61,-14.244 2.144,-1.114 5.349,-1.672 9.195,-1.6 z"
         class=""
         fill="#4a4a4a"
         fill-opacity="1"
         id="path22"
         style="fill:#000000" />
      <path
         d="M 487.78,291.3 366.9,309.343 320.077,476.659 436.374,444.889 Z"
         class=""
         fill="#4a4a4a"
         fill-opacity="1"
         id="path24"
         style="fill:#000000" />
      <path
         d="m 305.972,302.1 c 1.412,0.002 2.838,0.319 4.238,0.943 8.555,3.817 14.318,18.019 12.873,31.72 -1.446,13.7 -9.551,21.711 -18.105,17.893 -8.555,-3.816 -14.319,-18.018 -12.874,-31.72 1.176,-11.144 6.849,-18.848 13.868,-18.836 z"
         class=""
         fill="#4a4a4a"
         fill-opacity="1"
         id="path26"
         style="fill:#000000" />
      <path
         d="m 460.058,313.736 c 3.263,-0.097 5.967,1.359 7.673,4.13 4.173,6.781 1.408,19.512 -6.176,28.435 -7.584,8.922 -17.114,10.658 -21.287,3.878 -4.173,-6.781 -1.408,-19.511 6.175,-28.434 4.191,-4.93 9.205,-7.879 13.616,-8.008 z"
         class=""
         fill="#4a4a4a"
         fill-opacity="1"
         id="path28"
         style="fill:#000000" />
      <path
         d="m 391.362,324.4 c 3.262,-0.096 5.966,1.359 7.672,4.13 4.173,6.781 1.408,19.512 -6.176,28.435 -7.584,8.922 -17.114,10.658 -21.287,3.877 -4.172,-6.781 -1.407,-19.511 6.177,-28.434 4.191,-4.93 9.204,-7.879 13.615,-8.008 z"
         class=""
         fill="#4a4a4a"
         fill-opacity="1"
         id="path30"
         style="fill:#000000" />
      <path
         d="m 217.366,337.705 c 1.413,0.002 2.839,0.32 4.24,0.945 8.554,3.818 14.317,18.019 12.872,31.72 -1.445,13.701 -9.552,21.713 -18.106,17.894 -8.555,-3.817 -14.318,-18.019 -12.873,-31.72 1.175,-11.145 6.847,-18.851 13.866,-18.84 z"
         class=""
         fill="#4a4a4a"
         fill-opacity="1"
         id="path32"
         style="fill:#000000" />
      <path
         d="m 429.644,398.575 c 3.262,-0.096 5.965,1.36 7.67,4.13 4.173,6.78 1.409,19.51 -6.174,28.434 -7.584,8.922 -17.115,10.658 -21.287,3.876 -4.173,-6.781 -1.408,-19.511 6.175,-28.434 4.191,-4.93 9.205,-7.879 13.616,-8.008 z"
         class=""
         fill="#4a4a4a"
         fill-opacity="1"
         id="path34"
         style="fill:#000000" />
      <path
         d="m 359.312,418.063 c 3.262,-0.095 5.965,1.361 7.67,4.132 4.173,6.78 1.409,19.51 -6.174,28.434 -7.585,8.922 -17.115,10.657 -21.287,3.874 -4.172,-6.781 -1.407,-19.511 6.176,-28.434 4.191,-4.93 9.205,-7.878 13.616,-8.007 z"
         class="selected"
         fill="#4a4a4a"
         fill-opacity="1"
         id="path36"
         style="fill:#000000" />
    </g>
  </g>
</svg>
