<?xml version="1.0" encoding="UTF-8" standalone="no"?>
<svg
   viewBox="0 0 512 512"
   style="height: 512px; width: 512px;"
   version="1.1"
   id="svg6"
   sodipodi:docname="3dice.svg"
   inkscape:version="1.1.2 (0a00cf5339, 2022-02-04)"
   xmlns:inkscape="http://www.inkscape.org/namespaces/inkscape"
   xmlns:sodipodi="http://sodipodi.sourceforge.net/DTD/sodipodi-0.dtd"
   xmlns="http://www.w3.org/2000/svg"
   xmlns:svg="http://www.w3.org/2000/svg">
  <defs
     id="defs10" />
  <sodipodi:namedview
     id="namedview8"
     pagecolor="#ffffff"
     bordercolor="#666666"
     borderopacity="1.0"
     inkscape:pageshadow="2"
     inkscape:pageopacity="0.0"
     inkscape:pagecheckerboard="0"
     showgrid="false"
     inkscape:zoom="1.6992188"
     inkscape:cx="134.76781"
     inkscape:cy="255.99999"
     inkscape:window-width="1920"
     inkscape:window-height="1052"
     inkscape:window-x="0"
     inkscape:window-y="0"
     inkscape:window-maximized="1"
     inkscape:current-layer="svg6" />
  <g
     class=""
     id="g4"
     style="fill:#000000;stroke:#ffffff;stroke-opacity:1;stroke-width:3;stroke-miterlimit:4;stroke-dasharray:none">
    <path
       d="m 388.53,21.53 c -38.006,30.546 -63.492,66.122 -83.952,103.687 12.746,7.812 25.587,14.923 38.516,21.38 l 88.744,34.04 c 13.746,3.8 27.583,6.995 41.51,9.625 13.493,-42.908 19.872,-85.824 19.433,-128.73 l -104.25,-40 z m -266.813,3.88 15.133,64.967 68.95,16.38 -12.993,-64.525 z m -17.594,6.848 -37.227,47.545 12.358,62.025 39.494,-46.785 z m 27.783,76.148 -37.094,43.97 52.165,7.718 c 7.243,-2.11 14.482,-4.097 21.716,-5.967 l 27.62,-30.408 -64.407,-15.314 z m 170.57,37.346 8.776,58.912 c 5.91,6.06 11.636,12.256 17.13,18.615 l 89.024,34.157 45.317,-50.218 c -54.72,-11.1 -108.31,-30.82 -160.248,-61.468 z m -70.09,13.482 c -49.324,9.35 -98.335,21.9 -147.224,42.645 40.825,34.878 76.848,72.364 105.988,113.538 L 340.354,270.731 C 313.821,228.869 274.352,193.711 232.384,159.233 Z M 65.71,209.848 C 45.093,260.13 28.07,311.115 24.24,367.025 c 24.535,52.892 70.202,90.623 110.764,119.72 L 177.48,328.295 C 147.505,285.442 109.43,246.353 65.71,209.848 Z m 285.36,77.182 -155.68,46.63 -42.146,157.22 c 52.167,-7.854 103.99,-21.873 155.822,-48.26 24.952,-53.52 30.504,-99.728 42.002,-155.587 z"
       fill="#4a4a4a"
       fill-opacity="1"
       id="path2"
       style="fill:#000000;stroke:#ffffff;stroke-opacity:1;stroke-width:3;stroke-miterlimit:4;stroke-dasharray:none" />
  </g>
</svg>
