<?xml version="1.0" encoding="UTF-8" standalone="no"?>
<svg
   viewBox="0 0 512 512"
   style="height: 512px; width: 512px;"
   version="1.1"
   id="svg6"
   sodipodi:docname="armed_B.svg"
   inkscape:version="1.1.2 (0a00cf5339, 2022-02-04)"
   xmlns:inkscape="http://www.inkscape.org/namespaces/inkscape"
   xmlns:sodipodi="http://sodipodi.sourceforge.net/DTD/sodipodi-0.dtd"
   xmlns="http://www.w3.org/2000/svg"
   xmlns:svg="http://www.w3.org/2000/svg">
  <defs
     id="defs10" />
  <sodipodi:namedview
     id="namedview8"
     pagecolor="#ffffff"
     bordercolor="#666666"
     borderopacity="1.0"
     inkscape:pageshadow="2"
     inkscape:pageopacity="0.0"
     inkscape:pagecheckerboard="0"
     showgrid="false"
     inkscape:zoom="1.6992188"
     inkscape:cx="-8.2390802"
     inkscape:cy="255.99999"
     inkscape:window-width="1920"
     inkscape:window-height="1052"
     inkscape:window-x="0"
     inkscape:window-y="0"
     inkscape:window-maximized="1"
     inkscape:current-layer="svg6" />
  <g
     class=""
     id="g4"
     style="fill:#000000">
    <path
       d="M 122.1,17.52 186.6,161 291.1,116.1 246.6,17.52 h -51.1 l 35.8,80.75 -16.4,7.23 -39,-87.98 z m 265.2,77.75 -276.9,119.93 12,28.2 278.1,-119.8 z m -69.7,98.53 -23.9,11.5 c 12.8,5.4 26,13.7 38.3,15.6 18.1,-13.1 -4.9,-30.5 -14.4,-27.1 z m -60.7,11.1 -36.2,16.7 c -11.9,18.4 -14.8,46 -18.2,69.7 20.6,30.1 30.5,62.4 39.5,94 17.9,-3.7 32.2,-6.8 48.7,-11.5 -24.4,-38.7 -42.2,-78.4 -53.6,-118.9 0,0 5.6,-10.5 8.4,-15.8 11.9,7.3 24.9,12.4 36.6,9.9 10,-4.1 21.5,-7.9 27.7,-16.6 -17.6,-6.9 -37.1,-17.5 -52.9,-27.5 z m 92.6,26.6 c -10.8,5.8 -23,11.2 -31.9,18.9 -5.3,4.7 -12.1,8.8 -20.5,12.3 1.1,7.3 -0.1,19.6 8.1,18.8 20.5,-6.2 40.5,-15 59.7,-28.4 -0.1,-9.2 -8,-24.1 -15.4,-21.6 z m -90.2,34.2 c 11.3,34.8 27.6,69 49.3,102.6 4.7,-1.6 9.3,-3.3 13.5,-5 -7.3,-6.2 -11.7,-15.9 -12,-25.3 -16.6,-4.1 -20.8,-29.4 -17.2,-41.6 -9.5,-7 -13.6,-18.1 -14.2,-28.7 -7.2,0.7 -13.6,-0.1 -19.4,-2 z m 103.3,10.4 C 349,284.2 335,290.4 321,295.3 l -9,4.4 c -4.4,4.6 -4.5,15.6 1,20.3 9.7,3.5 50.1,-21.2 57.7,-27.9 1.3,-5.8 -3.5,-14.9 -8.1,-16 z M 184.5,297.3 19.1,335.8 V 495 C 114.8,469.7 166,447.9 228.8,404.8 218,366.8 208.3,330 184.5,297.3 Z m 187.8,16.9 c -13.6,10.2 -27.2,16.2 -42.9,21.4 -0.4,6.7 2.5,18.1 12.1,16 19.9,-4.3 36.3,-17.5 36.6,-24.6 0.2,-3.7 -2,-10.5 -5.8,-12.8 z m -7.5,48.6 c -14.3,8.2 -31.5,15.9 -46.7,21.4 l 18.7,31.8 39.3,-18.8 z m 22.2,49.1 -44.1,21.1 3.1,21.9 c 15.1,0.5 46.6,-11.3 55.4,-26.1 v -0.1 z"
       fill="#000000"
       fill-opacity="1"
       id="path2"
       style="fill:#000000" />
  </g>
</svg>
