<?xml version="1.0" encoding="UTF-8" standalone="no"?>
<svg
   viewBox="0 0 512 512"
   style="height: 512px; width: 512px;"
   version="1.1"
   id="svg898"
   sodipodi:docname="charisma_B.svg"
   inkscape:version="1.1.2 (0a00cf5339, 2022-02-04)"
   xmlns:inkscape="http://www.inkscape.org/namespaces/inkscape"
   xmlns:sodipodi="http://sodipodi.sourceforge.net/DTD/sodipodi-0.dtd"
   xmlns="http://www.w3.org/2000/svg"
   xmlns:svg="http://www.w3.org/2000/svg">
  <defs
     id="defs902" />
  <sodipodi:namedview
     id="namedview900"
     pagecolor="#ffffff"
     bordercolor="#666666"
     borderopacity="1.0"
     inkscape:pageshadow="2"
     inkscape:pageopacity="0.0"
     inkscape:pagecheckerboard="0"
     showgrid="false"
     inkscape:zoom="1.6992188"
     inkscape:cx="-8.2390802"
     inkscape:cy="255.99999"
     inkscape:window-width="1920"
     inkscape:window-height="1052"
     inkscape:window-x="0"
     inkscape:window-y="0"
     inkscape:window-maximized="1"
     inkscape:current-layer="svg898" />
  <g
     class=""
     id="g896"
     style="fill:#000000">
    <path
       d="m 256.563,20.53 c -48.747,0 -93.132,25.712 -125.844,68.44 -32.714,42.726 -53.282,102.36 -53.282,168.405 0,66.045 20.568,125.648 53.28,168.375 32.713,42.727 77.098,68.438 125.845,68.438 48.746,0 93.13,-25.71 125.843,-68.438 32.713,-42.727 53.28,-102.33 53.28,-168.375 0.002,-66.045 -20.567,-125.68 -53.28,-168.406 -32.712,-42.728 -77.097,-68.44 -125.844,-68.44 z m -54.97,148.657 c 14.85,-0.292 29.283,8.698 33.845,28.188 9.805,41.902 -43.157,82.06 -43.157,107.656 -11.71,-20.28 -81.58,-31.536 -91,-71.686 -9.28,-39.562 34.006,-62.027 62.907,-33.125 5.326,-19.873 21.6,-30.72 37.407,-31.032 z m 106.532,0 c 16.245,-0.337 33.326,10.558 38.813,31.032 28.9,-28.903 72.218,-6.438 62.937,33.124 -9.42,40.15 -79.288,51.405 -91,71.687 0,-25.595 -52.993,-65.753 -43.188,-107.655 4.415,-18.862 18.104,-27.89 32.438,-28.188 z M 258.03,350.595 c 34.49,0 68.985,7.503 99.283,22.53 l 6.468,3.22 -1.467,7.062 c 0,0 -3.773,17.89 -18.813,35.094 -15.04,17.204 -41.975,34.063 -85.47,34.063 -43.492,0 -70.427,-16.86 -85.467,-34.063 -15.04,-17.204 -18.813,-35.094 -18.813,-35.094 l -1.47,-7.062 6.47,-3.22 c 2.803,-1.39 5.66,-2.675 8.53,-3.937 v -0.375 h 0.814 c 27.954,-12.135 58.942,-18.218 89.937,-18.218 z m -72.56,54.25 c 0.38,0.46 0.75,0.912 1.155,1.375 11.94,13.657 32.584,27.655 71.406,27.655 38.823,0 59.466,-13.998 71.408,-27.656 0.404,-0.464 0.773,-0.917 1.156,-1.376 H 185.47 Z"
       fill="#000000"
       fill-opacity="1"
       id="path894"
       style="fill:#000000" />
  </g>
</svg>
