<?xml version="1.0" encoding="UTF-8" standalone="no"?>
<svg
   viewBox="0 0 512 512"
   style="height: 512px; width: 512px;"
   version="1.1"
   id="svg6"
   sodipodi:docname="clover_grey.svg"
   inkscape:version="1.1.2 (0a00cf5339, 2022-02-04)"
   xmlns:inkscape="http://www.inkscape.org/namespaces/inkscape"
   xmlns:sodipodi="http://sodipodi.sourceforge.net/DTD/sodipodi-0.dtd"
   xmlns="http://www.w3.org/2000/svg"
   xmlns:svg="http://www.w3.org/2000/svg">
  <defs
     id="defs10" />
  <sodipodi:namedview
     id="namedview8"
     pagecolor="#ffffff"
     bordercolor="#666666"
     borderopacity="1.0"
     inkscape:pageshadow="2"
     inkscape:pageopacity="0.0"
     inkscape:pagecheckerboard="0"
     showgrid="false"
     inkscape:zoom="1.6992188"
     inkscape:cx="134.76781"
     inkscape:cy="247.76091"
     inkscape:window-width="1920"
     inkscape:window-height="1052"
     inkscape:window-x="0"
     inkscape:window-y="0"
     inkscape:window-maximized="1"
     inkscape:current-layer="svg6" />
  <g
     class=""
     id="g4"
     style="fill:#808080;stroke:#000000;stroke-opacity:1;stroke-width:3;stroke-miterlimit:4;stroke-dasharray:none">
    <path
       d="M 105.186,26.426 C 66.872,26.486 43.056,52.76 73.816,99.42 6.192,97.785 -9.36,188.75 62.29,218.39 c 54.838,22.684 82.008,-6.012 142.985,15.008 -64.015,-7.88 -119.143,21.696 -153.814,66.6 -38.507,49.87 -24.104,120.148 40.41,100.332 -9.024,67.12 62.385,100.137 103.907,47.166 35.793,-45.66 15.51,-103.756 41.842,-182.885 7.1,61.706 -5.617,108.762 11.573,166.478 21.393,71.83 103.075,75.605 118.537,6.34 55.84,51.31 95.82,-9.41 75.754,-76.643 -17.993,-60.285 -90.76,-98.2 -167.65,-118.703 72.808,-3.032 108.846,44.51 167.78,30.084 C 516.06,254.433 507.979,163.741 432.791,143.245 478.558,88.327 413.345,33.198 345.611,50.128 288.498,64.403 254.761,122.105 243.683,193.458 238.133,127.84 214.86,73.32 162.653,43.142 143.013,31.789 122.603,26.402 105.187,26.428 Z"
       fill="#417505"
       fill-opacity="1"
       id="path1488"
       style="fill:#808080;stroke:#000000;stroke-opacity:1;stroke-width:3;stroke-miterlimit:4;stroke-dasharray:none" />
  </g>
</svg>
