<?xml version="1.0" encoding="UTF-8" standalone="no"?>
<svg
   viewBox="0 0 512 512"
   style="height: 512px; width: 512px;"
   version="1.1"
   id="svg6"
   sodipodi:docname="crossed-swords.svg"
   inkscape:version="1.1.2 (0a00cf5339, 2022-02-04)"
   xmlns:inkscape="http://www.inkscape.org/namespaces/inkscape"
   xmlns:sodipodi="http://sodipodi.sourceforge.net/DTD/sodipodi-0.dtd"
   xmlns="http://www.w3.org/2000/svg"
   xmlns:svg="http://www.w3.org/2000/svg">
  <defs
     id="defs10" />
  <sodipodi:namedview
     id="namedview8"
     pagecolor="#ffffff"
     bordercolor="#666666"
     borderopacity="1.0"
     inkscape:pageshadow="2"
     inkscape:pageopacity="0.0"
     inkscape:pagecheckerboard="0"
     showgrid="false"
     inkscape:zoom="1.6992188"
     inkscape:cx="134.17931"
     inkscape:cy="256"
     inkscape:window-width="1920"
     inkscape:window-height="1052"
     inkscape:window-x="0"
     inkscape:window-y="0"
     inkscape:window-maximized="1"
     inkscape:current-layer="svg6" />
  <g
     class=""
     id="g4"
     style="stroke:#ffffff;stroke-opacity:1;stroke-width:3;stroke-miterlimit:4;stroke-dasharray:none">
    <path
       d="m 19.75,14.438 c 59.538,112.29 142.51,202.35 232.28,292.718 l 3.626,3.75 0.063,-0.062 c 21.827,21.93 44.04,43.923 66.405,66.25 -18.856,14.813 -38.974,28.2 -59.938,40.312 l 28.532,28.53 68.717,-68.717 c 42.337,27.636 76.286,63.646 104.094,105.81 l 28.064,-28.06 c -42.47,-27.493 -79.74,-60.206 -106.03,-103.876 l 68.936,-68.938 -28.53,-28.53 c -11.115,21.853 -24.413,42.015 -39.47,60.593 -43.852,-43.8 -86.462,-85.842 -130.125,-125.47 -0.224,-0.203 -0.432,-0.422 -0.656,-0.625 C 183.624,122.75 108.515,63.91 19.75,14.437 Z m 471.875,0 c -83.038,46.28 -154.122,100.78 -221.97,161.156 l 22.814,21.562 56.81,-56.812 13.22,13.187 -56.438,56.44 24.594,23.186 c 61.802,-66.92 117.6,-136.92 160.97,-218.72 z m -329.53,125.906 200.56,200.53 c -4.36,4.443 -8.84,8.793 -13.405,13.032 L 148.875,153.53 Z m -76.69,113.28 -28.5,28.532 68.907,68.906 c -26.29,43.673 -63.53,76.414 -106,103.907 l 28.063,28.06 c 27.807,-42.164 61.758,-78.174 104.094,-105.81 l 68.718,68.717 28.53,-28.53 c -20.962,-12.113 -41.08,-25.5 -59.937,-40.313 17.865,-17.83 35.61,-35.433 53.157,-52.97 l -24.843,-25.655 -55.47,55.467 c -4.565,-4.238 -9.014,-8.62 -13.374,-13.062 l 55.844,-55.844 -24.53,-25.374 c -18.28,17.856 -36.602,36.06 -55.158,54.594 -15.068,-18.587 -28.38,-38.758 -39.5,-60.625 z"
       fill="#000000"
       fill-opacity="1"
       id="path2"
       style="stroke:#ffffff;stroke-opacity:1;stroke-width:3;stroke-miterlimit:4;stroke-dasharray:none" />
  </g>
</svg>
