<?xml version="1.0" encoding="UTF-8" standalone="no"?>
<svg
   viewBox="0 0 512 512"
   style="height: 512px; width: 512px;"
   version="1.1"
   id="svg1032"
   sodipodi:docname="endurance.svg"
   inkscape:version="1.1.2 (0a00cf5339, 2022-02-04)"
   xmlns:inkscape="http://www.inkscape.org/namespaces/inkscape"
   xmlns:sodipodi="http://sodipodi.sourceforge.net/DTD/sodipodi-0.dtd"
   xmlns="http://www.w3.org/2000/svg"
   xmlns:svg="http://www.w3.org/2000/svg">
  <defs
     id="defs1036" />
  <sodipodi:namedview
     id="namedview1034"
     pagecolor="#ffffff"
     bordercolor="#666666"
     borderopacity="1.0"
     inkscape:pageshadow="2"
     inkscape:pageopacity="0.0"
     inkscape:pagecheckerboard="0"
     showgrid="false"
     inkscape:zoom="1.6992188"
     inkscape:cx="123.58621"
     inkscape:cy="256"
     inkscape:window-width="1920"
     inkscape:window-height="1052"
     inkscape:window-x="0"
     inkscape:window-y="0"
     inkscape:window-maximized="1"
     inkscape:current-layer="svg1032" />
  <g
     class=""
     id="g1030"
     style="fill:#999999">
    <path
       d="m 257.375,20.313 c -13.418,0 -26.07,7.685 -35.938,21.75 -9.868,14.064 -16.343,34.268 -16.343,56.75 0,22.48 6.475,42.654 16.344,56.718 9.868,14.066 22.52,21.75 35.937,21.75 13.418,0 26.038,-7.684 35.906,-21.75 9.87,-14.063 16.376,-34.236 16.376,-56.718 0,-22.48 -6.506,-42.685 -16.375,-56.75 -9.867,-14.064 -22.487,-21.75 -35.905,-21.75 z M 107.125,63.375 C 86.82,63.949 83.129,77.267 75.345,92.405 52.047,137.709 19.781,257.155 19.781,257.155 l 160.47,-5.436 29.125,137.593 -22.78,106.03 h 149.093 l -22.282,-106 24.25,-137.5 157.53,5.313 c 0.002,0 -32.264,-119.447 -55.56,-164.75 -7.787,-15.14 -11.477,-28.457 -31.782,-29.03 -17.898,0 -32.406,15.552 -32.406,34.718 0,19.166 14.508,34.72 32.406,34.72 3.728,0 7.258,-0.884 10.594,-2.126 l 7.937,74.406 L 309.437,165 c -0.285,0.42 -0.552,0.867 -0.843,1.28 -12.436,17.724 -30.604,29.69 -51.22,29.69 -20.614,0 -38.782,-11.966 -51.218,-29.69 -0.277,-0.395 -0.54,-0.816 -0.812,-1.218 l -116.75,40.032 7.937,-74.406 c 3.337,1.242 6.867,2.125 10.595,2.125 17.898,0 32.406,-15.553 32.406,-34.72 0,-19.165 -14.507,-34.718 -32.405,-34.718 z"
       fill="#000000"
       fill-opacity="1"
       id="path1028"
       style="fill:#999999" />
  </g>
</svg>
