<?xml version="1.0" encoding="UTF-8" standalone="no"?>
<svg
   viewBox="0 0 512 512"
   style="height: 512px; width: 512px;"
   version="1.1"
   id="svg1099"
   sodipodi:docname="evade.svg"
   inkscape:version="1.1.2 (0a00cf5339, 2022-02-04)"
   xmlns:inkscape="http://www.inkscape.org/namespaces/inkscape"
   xmlns:sodipodi="http://sodipodi.sourceforge.net/DTD/sodipodi-0.dtd"
   xmlns="http://www.w3.org/2000/svg"
   xmlns:svg="http://www.w3.org/2000/svg">
  <defs
     id="defs1103" />
  <sodipodi:namedview
     id="namedview1101"
     pagecolor="#ffffff"
     bordercolor="#666666"
     borderopacity="1.0"
     inkscape:pageshadow="2"
     inkscape:pageopacity="0.0"
     inkscape:pagecheckerboard="0"
     showgrid="false"
     inkscape:zoom="1.6992188"
     inkscape:cx="123.58621"
     inkscape:cy="256"
     inkscape:window-width="1920"
     inkscape:window-height="1052"
     inkscape:window-x="0"
     inkscape:window-y="0"
     inkscape:window-maximized="1"
     inkscape:current-layer="svg1099" />
  <g
     class=""
     id="g1097"
     style="fill:#999999">
    <path
       d="m 140.488,19.31 c 0,0 -26.726,65.584 -24.572,75.734 1.878,9.191 9.306,0.316 12.457,7.064 5.59,11.803 55.342,93.663 49.182,98.626 -1.558,1.36 -39.38,-0.402 -67.961,-5.845 -52.49,-9.998 -94.822,2.352 -77.039,42.21 26.177,58.653 133.15,154.14 97.89,183.602 -40.844,34.159 19.82,117.249 79.275,40.308 10.885,-14.085 29.356,-73.201 -1.614,-69.579 -37.447,4.38 -14.128,-30.491 -14.128,-30.491 l 23.345,-29.92 c 12.96,-1.9 134.534,-21.449 134.534,-21.449 l -4.226,-27.002 -174.475,20.25 c 0,0 -24.16,-32.453 -35.964,-50.687 -9.37,-11.474 62.005,4.88 76.388,-10.522 19.968,-21.276 7.601,-43.88 7.601,-43.88 L 155.35,69.201 Z m 114.619,43.977 -62.759,39.419 16.081,28.897 114.931,-58.86 z m -124.743,78.84 -46.691,31.612 48.224,10.444 17.417,-12.13 z m 175.08,24.496 -52.166,34.37 51.969,32.462 0.058,-21.93 c 51.869,12.43 140.22,48.13 126.472,191.26 l 23.908,-73.889 27.884,33.386 C 478.067,195.379 333.032,191.689 305.379,190.673 Z m -74.376,175.953 -19.91,25.873 110.89,14.697 c 0,0 18.638,-17.84 15.035,-18.976 -27.712,-8.623 -79.886,-16.97 -106.015,-21.594 z"
       fill="#000000"
       fill-opacity="1"
       id="path1095"
       style="fill:#999999" />
  </g>
</svg>
