<?xml version="1.0" encoding="UTF-8" standalone="no"?>
<svg
   viewBox="0 0 512 512"
   style="height: 512px; width: 512px;"
   version="1.1"
   id="svg831"
   sodipodi:docname="gaze.svg"
   inkscape:version="1.1.2 (0a00cf5339, 2022-02-04)"
   xmlns:inkscape="http://www.inkscape.org/namespaces/inkscape"
   xmlns:sodipodi="http://sodipodi.sourceforge.net/DTD/sodipodi-0.dtd"
   xmlns="http://www.w3.org/2000/svg"
   xmlns:svg="http://www.w3.org/2000/svg">
  <defs
     id="defs835" />
  <sodipodi:namedview
     id="namedview833"
     pagecolor="#ffffff"
     bordercolor="#666666"
     borderopacity="1.0"
     inkscape:pageshadow="2"
     inkscape:pageopacity="0.0"
     inkscape:pagecheckerboard="0"
     showgrid="false"
     inkscape:zoom="1.6992188"
     inkscape:cx="134.17931"
     inkscape:cy="256"
     inkscape:window-width="1920"
     inkscape:window-height="1052"
     inkscape:window-x="0"
     inkscape:window-y="0"
     inkscape:window-maximized="1"
     inkscape:current-layer="svg831" />
  <g
     class=""
     id="g829"
     style="stroke-width:3;stroke-miterlimit:4;stroke-dasharray:none;stroke:#ffffff;stroke-opacity:1">
    <path
       d="m 160.72,18.188 v 52.718 c -7.084,7.197 -13.702,15.14 -19.782,23.75 C 115.436,130.766 98.88,178.512 95.5,231.5 79.657,238.307 63.132,242.827 48.562,244.063 H 19 v 18.687 h 27.938 c 15.03,1.032 32.302,5.66 48.812,12.78 3.888,51.552 20.265,97.963 45.188,133.25 6.08,8.61 12.698,16.554 19.78,23.75 v 58.94 h 18.72 v -42.533 c 22.546,16.858 48.51,26.625 76.25,26.625 27.717,0 53.653,-9.76 76.187,-26.593 v 42.5 h 18.688 v -58.845 c 7.118,-7.222 13.767,-15.197 19.875,-23.844 24.917,-35.28 41.27,-81.68 45.156,-133.217 16.448,-7.143 33.71,-11.776 48.75,-12.813 h 27.937 v -18.688 h -29.53 c -14.582,-1.237 -31.113,-5.763 -46.906,-12.593 -3.38,-52.977 -19.91,-100.712 -45.406,-136.814 -6.108,-8.647 -12.757,-16.622 -19.875,-23.844 V 18.188 h -18.688 v 36.28 c -22.534,-16.832 -48.47,-26.593 -76.188,-26.593 -27.74,0 -53.703,9.767 -76.25,26.625 V 18.187 H 160.72 Z m 94.968,28.375 c 27.81,0 53.952,11.57 76.187,32.093 v 90.188 c -3.3,28.337 -37.34,58.837 -76.22,58.812 -40.656,0 -75.936,-33.853 -75.936,-63.25 h -0.282 v -85.72 c 22.25,-20.54 48.427,-32.124 76.25,-32.124 z m -0.063,18.75 c -30.798,0 -57.844,32.254 -57.844,74.562 0,42.308 27.047,74.594 57.845,74.594 30.798,0 57.844,-32.287 57.844,-74.595 0,-42.308 -27.047,-74.563 -57.845,-74.563 z m 94.938,33.906 c 1.56,2.024 3.092,4.09 4.593,6.218 21.458,30.382 36.4,70.79 41.063,116.093 -25.535,-15.01 -45.376,-35.753 -45.376,-57.124 h -0.28 l -0.002,-65.187 z m -189.844,0.093 v 69.656 c -2.597,19.8 -21.665,38.734 -45.626,52.686 4.648,-45.354 19.616,-85.808 41.094,-116.22 1.48,-2.094 2.994,-4.127 4.53,-6.124 z m 6.874,124.062 c 19.914,0.01 41.186,8.716 64,27.156 l 0.25,5.564 c -22.345,18.332 -43.445,27.15 -63.406,27.25 -21.094,0.106 -42.096,-9.34 -63.72,-30.03 21.138,-20.45 41.848,-29.948 62.876,-29.94 z m 170.625,0 c 20.928,0.01 43.357,9.603 67.5,30.03 -23.548,20.184 -45.702,29.833 -66.626,29.94 -19.773,0.098 -39.455,-8.202 -59.656,-26.283 l 0.312,-7.843 c 19.62,-17.622 38.9,-25.853 58.47,-25.845 z m -167.908,12 c -9.548,0 -17.28,7.766 -17.28,17.313 0,9.546 7.732,17.28 17.28,17.28 9.548,0 17.313,-7.734 17.313,-17.28 0,-9.548 -7.764,-17.313 -17.313,-17.313 z m 170.657,0 c -9.55,0 -17.283,7.766 -17.283,17.313 0,9.546 7.734,17.28 17.282,17.28 9.547,0 17.28,-7.734 17.28,-17.28 0,-9.548 -7.733,-17.313 -17.28,-17.313 z m -85.314,43.875 c 38.88,0 72.918,30.507 76.22,58.844 v 86.687 c -22.236,20.525 -48.38,32.095 -76.188,32.095 -27.823,0 -54,-11.582 -76.25,-32.125 v -82.22 h 0.28 c 0,-29.396 35.28,-63.256 75.938,-63.28 z M 115.47,285.5 c 23.788,13.933 42.672,32.765 45.25,52.47 v 66.155 c -1.538,-1.997 -3.053,-4.03 -4.532,-6.125 -20.89,-29.58 -35.642,-68.653 -40.72,-112.5 z m 280.405,0.125 c -5.09,43.797 -19.848,82.824 -40.72,112.375 -1.5,2.126 -3.033,4.194 -4.592,6.22 v -61.69 h 0.28 c 0,-21.27 19.672,-41.91 45.032,-56.905 z"
       fill="#000000"
       fill-opacity="1"
       id="path827"
       style="stroke-width:3;stroke-miterlimit:4;stroke-dasharray:none;stroke:#ffffff;stroke-opacity:1" />
  </g>
</svg>
