<?xml version="1.0" encoding="UTF-8" standalone="no"?>
<svg
   viewBox="0 0 512 512"
   style="height: 512px; width: 512px;"
   version="1.1"
   id="svg898"
   sodipodi:docname="high-shot.svg"
   inkscape:version="1.1.2 (0a00cf5339, 2022-02-04)"
   xmlns:inkscape="http://www.inkscape.org/namespaces/inkscape"
   xmlns:sodipodi="http://sodipodi.sourceforge.net/DTD/sodipodi-0.dtd"
   xmlns="http://www.w3.org/2000/svg"
   xmlns:svg="http://www.w3.org/2000/svg">
  <defs
     id="defs902" />
  <sodipodi:namedview
     id="namedview900"
     pagecolor="#ffffff"
     bordercolor="#666666"
     borderopacity="1.0"
     inkscape:pageshadow="2"
     inkscape:pageopacity="0.0"
     inkscape:pagecheckerboard="0"
     showgrid="false"
     inkscape:zoom="1.6992188"
     inkscape:cx="256"
     inkscape:cy="256"
     inkscape:window-width="1920"
     inkscape:window-height="1052"
     inkscape:window-x="0"
     inkscape:window-y="0"
     inkscape:window-maximized="1"
     inkscape:current-layer="svg898" />
  <g
     class=""
     id="g896"
     style="stroke:#fffffb;stroke-opacity:1;stroke-width:3;stroke-miterlimit:4;stroke-dasharray:none">
    <path
       d="m 492.656,20.406 -118.594,56.22 39.813,9.374 -86.97,86.97 -305.5,259.374 0.69,0.687 104.75,-47.467 -46.376,105.843 0.905,0.906 272.5,-319.875 73.22,-73.218 9.342,39.81 z m -473.25,0.063 c -1.347,23.43 5,39.947 16.563,52.218 L 60.062,374.967 77.624,360.093 55.904,87.655 C 113.879,119.609 225,112.82 272.811,194.375 l 66.625,-56.564 1.22,-1.218 C 292.74,38.666 86.01,99.716 19.406,20.47 Z m 359.531,151.56 -1.156,1.157 -57.25,67.188 c 82.006,47.945 75.587,159.267 107.283,218.03 l -272.157,-24.5 -14.812,17.408 301.562,27.125 c 12.48,12.283 29.4,19.084 53.688,17.687 -79.95,-67.2 -18.36,-275.754 -117.156,-324.094 z"
       fill="#000000"
       fill-opacity="1"
       id="path894"
       style="stroke:#fffffb;stroke-opacity:1;stroke-width:3;stroke-miterlimit:4;stroke-dasharray:none" />
  </g>
</svg>
