<?xml version="1.0" encoding="UTF-8" standalone="no"?>
<svg
   viewBox="0 0 512 512"
   style="height: 512px; width: 512px;"
   version="1.1"
   id="svg1166"
   sodipodi:docname="intellect.svg"
   inkscape:version="1.1.2 (0a00cf5339, 2022-02-04)"
   xmlns:inkscape="http://www.inkscape.org/namespaces/inkscape"
   xmlns:sodipodi="http://sodipodi.sourceforge.net/DTD/sodipodi-0.dtd"
   xmlns="http://www.w3.org/2000/svg"
   xmlns:svg="http://www.w3.org/2000/svg">
  <defs
     id="defs1170" />
  <sodipodi:namedview
     id="namedview1168"
     pagecolor="#ffffff"
     bordercolor="#666666"
     borderopacity="1.0"
     inkscape:pageshadow="2"
     inkscape:pageopacity="0.0"
     inkscape:pagecheckerboard="0"
     showgrid="false"
     inkscape:zoom="1.6992188"
     inkscape:cx="123.58621"
     inkscape:cy="256"
     inkscape:window-width="1920"
     inkscape:window-height="1052"
     inkscape:window-x="0"
     inkscape:window-y="0"
     inkscape:window-maximized="1"
     inkscape:current-layer="svg1166" />
  <g
     class=""
     id="g1164"
     style="fill:#999999">
    <path
       d="M 65.125,18.344 C 47.11,49.844 36.72,86.262 36.72,125.124 c 0,80.293 43.973,150.497 109.124,187.75 0.403,-6.904 0.92,-13.833 1.625,-20.75 -55.33,-34.965 -92.064,-96.676 -92.064,-167 0,-39.426 11.63,-75.964 31.563,-106.78 H 65.124 Z m 69.03,0 c -25.61,28.273 -41.374,65.635 -41.374,106.78 0,51.08 24.052,96.656 61.44,125.97 l 0.06,-0.25 c 1.612,-6.61 3.473,-13.008 5.69,-19.125 -29.73,-25.896 -48.5,-64.026 -48.5,-106.595 0,-42.848 19.254,-80.837 49.436,-106.78 h -26.75 z m 210.532,0 c 30.125,25.95 49.438,64.003 49.438,106.78 0,41.152 -17.546,78.157 -45.563,103.97 2.26,6.282 4.116,12.876 5.657,19.687 35.748,-29.366 58.592,-73.883 58.592,-123.655 0,-41.123 -15.81,-78.5 -41.406,-106.78 h -26.72 z m 73.407,0 c 20.06,30.867 32.094,67.387 32.094,106.78 0,69.457 -35.82,130.505 -90,165.69 0.545,7.037 0.933,14.107 1.187,21.123 64.267,-37.483 107.53,-107.18 107.53,-186.812 0,-38.925 -10.745,-75.328 -28.874,-106.78 h -21.936 z m -165.313,2.28 c -57.625,0 -104.53,46.906 -104.53,104.532 0,28.606 11.56,54.573 30.25,73.47 4.13,-4.712 8.84,-8.817 14.094,-12.19 -15.844,-15.56 -25.656,-37.237 -25.656,-61.28 0,-47.527 38.316,-85.844 85.843,-85.844 47.528,0 85.845,38.317 85.845,85.844 0,23.16 -9.108,44.114 -23.938,59.53 5.488,3.14 10.394,7.033 14.688,11.533 17.327,-18.666 27.938,-43.657 27.938,-71.064 0,-57.626 -46.905,-104.53 -104.532,-104.53 z m -4.186,55.564 c -21.622,2.8 -40.97,27.91 -40.97,60.28 0,17.846 6.173,33.653 15.282,44.595 l 10.188,12.218 -15.656,2.94 c -11.884,2.226 -20.62,8.512 -28.032,18.655 -7.41,10.143 -13.023,24.216 -16.97,40.406 -7.188,29.5 -8.736,65.498 -8.967,97.126 h 38.999 l 0.655,8.656 9.906,132.5 h 83.69 l 8.75,-132.437 0.592,-8.72 h 37.125 c -0.02,-32 -0.39,-68.49 -6.906,-98.217 -3.57,-16.297 -8.992,-30.34 -16.5,-40.375 -7.505,-10.035 -16.654,-16.288 -29.967,-18.344 L 273.875,193 283.969,180.375 c 8.713,-10.89 14.592,-26.495 14.592,-43.906 0,-34.515 -21.658,-60.22 -45.468,-60.22 -2.672,0 -4.275,-0.092 -4.5,-0.063 z"
       fill="#000000"
       fill-opacity="1"
       id="path1162"
       style="fill:#999999" />
  </g>
</svg>
