<?xml version="1.0" encoding="UTF-8" standalone="no"?>
<svg
   viewBox="0 0 512 512"
   style="height: 512px; width: 512px;"
   version="1.1"
   id="svg6"
   sodipodi:docname="juggler.svg"
   inkscape:version="1.1.2 (0a00cf5339, 2022-02-04)"
   xmlns:inkscape="http://www.inkscape.org/namespaces/inkscape"
   xmlns:sodipodi="http://sodipodi.sourceforge.net/DTD/sodipodi-0.dtd"
   xmlns="http://www.w3.org/2000/svg"
   xmlns:svg="http://www.w3.org/2000/svg">
  <defs
     id="defs10" />
  <sodipodi:namedview
     id="namedview8"
     pagecolor="#ffffff"
     bordercolor="#666666"
     borderopacity="1.0"
     inkscape:pageshadow="2"
     inkscape:pageopacity="0.0"
     inkscape:pagecheckerboard="0"
     showgrid="false"
     inkscape:zoom="1.6992188"
     inkscape:cx="134.76781"
     inkscape:cy="255.99999"
     inkscape:window-width="1920"
     inkscape:window-height="1052"
     inkscape:window-x="0"
     inkscape:window-y="0"
     inkscape:window-maximized="1"
     inkscape:current-layer="svg6" />
  <g
     class=""
     id="g4"
     style="fill:#000000;fill-opacity:1;stroke:#ffffff;stroke-opacity:1;stroke-width:3;stroke-miterlimit:4;stroke-dasharray:none">
    <path
       d="m 282.063,20.938 c -18.876,0 -33.875,15.56 -33.875,34.437 0,18.877 15,33.875 33.875,33.875 18.875,0 33.875,-14.998 33.875,-33.875 0,-18.875 -15,-34.438 -33.875,-34.438 z M 129.905,82.094 c -18.875,0 -33.875,15.59 -33.875,34.47 0,18.876 15,33.874 33.876,33.874 18.875,0 33.875,-14.998 33.875,-33.875 0,-18.876 -15,-34.47 -33.874,-34.47 z m 284.281,22.656 c -18.875,0 -33.875,15.59 -33.875,34.47 0,18.876 15,33.874 33.875,33.874 18.876,0 33.875,-14.998 33.875,-33.875 0,-18.877 -15,-34.47 -33.875,-34.47 z m -162.25,57.563 c -3.24,-0.003 -6.51,0.42 -9.718,1.28 -25.657,6.875 -39.12,39.755 -30.095,73.438 3.502,13.072 9.883,24.315 17.875,32.814 -19.225,4.532 -34.137,13.467 -40.5,24.5 l -0.406,-0.094 -41.594,64.438 -50.688,-21.938 c -29.376,-16.12 -61.575,24 -30.624,41.688 l 94.468,44.062 38.03,-50.063 c 21.493,38.735 15.748,77.484 -25.124,116.25 h 169.19 c -39.82,-38.2 -42.438,-76.424 -23.28,-114.625 l 36.81,48.438 94.47,-44.063 c 11.635,-6.65 14.334,-16.47 11.625,-25.28 -8.184,5.26 -17.915,8.343 -28.344,8.343 -14.224,0 -27.118,-5.72 -36.592,-14.938 l -28,12.125 -41.594,-64.437 h -0.03 c -5.48,-9.417 -17.226,-17.278 -32.533,-22.188 11.58,-14.222 15.924,-36.9 9.75,-59.937 -7.896,-29.473 -30.4,-49.798 -53.092,-49.813 z m -164.125,61.03 c -18.875,0 -33.874,15.56 -33.874,34.438 0,18.88 15,33.876 33.874,33.876 18.876,0 33.876,-14.997 33.876,-33.875 0,-18.874 -15,-34.436 -33.876,-34.436 z m 346.22,51.126 c -18.876,0 -33.876,15.59 -33.876,34.467 0,18.878 15,33.875 33.875,33.875 18.876,0 33.876,-14.997 33.876,-33.875 0,-18.875 -15,-34.468 -33.875,-34.468 z"
       fill="#4a4a4a"
       fill-opacity="1"
       id="path2"
       style="fill:#000000;fill-opacity:1;stroke:#ffffff;stroke-opacity:1;stroke-width:3;stroke-miterlimit:4;stroke-dasharray:none" />
  </g>
</svg>
