<?xml version="1.0" encoding="UTF-8" standalone="no"?>
<svg
   viewBox="0 0 512 512"
   style="height: 512px; width: 512px;"
   version="1.1"
   id="svg1233"
   sodipodi:docname="magic.svg"
   inkscape:version="1.1.2 (0a00cf5339, 2022-02-04)"
   xmlns:inkscape="http://www.inkscape.org/namespaces/inkscape"
   xmlns:sodipodi="http://sodipodi.sourceforge.net/DTD/sodipodi-0.dtd"
   xmlns="http://www.w3.org/2000/svg"
   xmlns:svg="http://www.w3.org/2000/svg">
  <defs
     id="defs1237" />
  <sodipodi:namedview
     id="namedview1235"
     pagecolor="#ffffff"
     bordercolor="#666666"
     borderopacity="1.0"
     inkscape:pageshadow="2"
     inkscape:pageopacity="0.0"
     inkscape:pagecheckerboard="0"
     showgrid="false"
     inkscape:zoom="1.6992188"
     inkscape:cx="123.58621"
     inkscape:cy="256"
     inkscape:window-width="1920"
     inkscape:window-height="1052"
     inkscape:window-x="0"
     inkscape:window-y="0"
     inkscape:window-maximized="1"
     inkscape:current-layer="svg1233" />
  <g
     class=""
     id="g1231"
     style="fill:#999999">
    <path
       d="M 486,203.652 H 310.111 L 256,37.113 201.889,203.652 H 26 L 168.22,307.275 113.758,474.887 256,371.24 398.242,474.886 343.769,307.274 Z M 400.005,231.66 334.67,279.256 319.21,231.66 Z M 256,127.708 l 24.658,75.91 H 231.33 Z M 111.995,231.66 h 80.795 l -15.45,47.596 z m 55.097,169.713 24.932,-76.743 40.194,29.29 z m 34.041,-104.762 21.1,-64.951 h 67.524 l 21.099,64.95 -54.867,39.977 z m 143.731,104.762 -65.082,-47.454 40.194,-29.29 z M 306.881,137.014 296.457,104.922 a 183.269,183.269 0 0 1 114.322,81.21 H 376.43 A 155.293,155.293 0 0 0 306.88,137.014 Z M 129,371.328 118.587,403.377 A 182.425,182.425 0 0 1 74.669,260.796 l 26.684,19.435 v 2.847 A 153.804,153.804 0 0 0 129,371.284 Z m 177.104,58.108 26.64,19.413 a 182.447,182.447 0 0 1 -153.51,0 l 26.64,-19.413 a 154.79,154.79 0 0 0 100.23,0 z M 135.569,186.133 h -34.348 a 183.269,183.269 0 0 1 114.322,-81.21 l -10.424,32.091 a 155.293,155.293 0 0 0 -69.55,49.119 z m 303.12,96.955 A 181.922,181.922 0 0 1 393.413,403.333 L 383,371.285 a 153.804,153.804 0 0 0 27.68,-88.197 v -2.846 l 26.683,-19.446 a 183.685,183.685 0 0 1 1.325,22.292 z"
       fill="#000000"
       fill-opacity="1"
       id="path1229"
       style="fill:#999999" />
  </g>
</svg>
