<?xml version="1.0" encoding="UTF-8" standalone="no"?>
<svg
   viewBox="0 0 512 512"
   style="height: 512px; width: 512px;"
   version="1.1"
   id="svg6"
   sodipodi:docname="muscle-up.svg"
   inkscape:version="1.1.2 (0a00cf5339, 2022-02-04)"
   xmlns:inkscape="http://www.inkscape.org/namespaces/inkscape"
   xmlns:sodipodi="http://sodipodi.sourceforge.net/DTD/sodipodi-0.dtd"
   xmlns="http://www.w3.org/2000/svg"
   xmlns:svg="http://www.w3.org/2000/svg">
  <defs
     id="defs10" />
  <sodipodi:namedview
     id="namedview8"
     pagecolor="#ffffff"
     bordercolor="#666666"
     borderopacity="1.0"
     inkscape:pageshadow="2"
     inkscape:pageopacity="0.0"
     inkscape:pagecheckerboard="0"
     showgrid="false"
     inkscape:zoom="1.6992188"
     inkscape:cx="134.76781"
     inkscape:cy="255.99999"
     inkscape:window-width="1920"
     inkscape:window-height="1052"
     inkscape:window-x="0"
     inkscape:window-y="0"
     inkscape:window-maximized="1"
     inkscape:current-layer="svg6" />
  <g
     class=""
     id="g4"
     style="fill:#000000;stroke:#ffffff;stroke-opacity:1;stroke-width:3;stroke-miterlimit:4;stroke-dasharray:none">
    <path
       d="M 165.906,18.688 C 15.593,59.28 -42.187,198.55 92.72,245.375 h -1.095 c 0.635,0.086 1.274,0.186 1.906,0.28 8.985,3.077 18.83,5.733 29.532,7.94 50.297,19.755 86.677,67.625 89.627,114.405 -33.514,23.096 -59.47,62.844 -59.47,62.844 L 179.5,469.53 138.28,493 h 81.97 c -40.425,-40.435 -11.76,-85.906 36.125,-85.906 48.54,0 73.945,48.112 36.156,85.906 h 81.126 l -40.375,-23.47 26.283,-38.686 c 0,0 -26.376,-40.4 -60.282,-63.406 3.204,-46.602 39.5,-94.167 89.595,-113.844 10.706,-2.207 20.546,-4.86 29.53,-7.938 0.633,-0.095 1.273,-0.195 1.908,-0.28 h -1.125 c 134.927,-46.82 77.163,-186.094 -73.157,-226.69 -40.722,39.37 6.54,101.683 43.626,56.877 36.9,69.08 8.603,127.587 -72.28,83.406 -11.88,24.492 -34.213,41.374 -60.688,41.374 -26.703,0 -49.168,-17.167 -60.97,-42 -81.774,45.38 -110.512,-13.372 -73.437,-82.78 37.09,44.805 84.35,-17.508 43.626,-56.876 z m 90.79,35.92 c -27.388,0 -51.33,27.556 -51.33,63.61 0,36.056 23.942,62.995 51.33,62.995 27.387,0 51.327,-26.94 51.327,-62.994 0,-36.058 -23.94,-63.61 -51.328,-63.61 z"
       fill="#4a4a4a"
       fill-opacity="1"
       id="path2"
       style="fill:#000000;stroke:#ffffff;stroke-opacity:1;stroke-width:3;stroke-miterlimit:4;stroke-dasharray:none" />
  </g>
</svg>
