<?xml version="1.0" encoding="UTF-8" standalone="no"?>
<svg
   viewBox="0 0 512 512"
   style="height: 512px; width: 512px;"
   version="1.1"
   id="svg1367"
   sodipodi:docname="perception_B.svg"
   inkscape:version="1.1.2 (0a00cf5339, 2022-02-04)"
   xmlns:inkscape="http://www.inkscape.org/namespaces/inkscape"
   xmlns:sodipodi="http://sodipodi.sourceforge.net/DTD/sodipodi-0.dtd"
   xmlns="http://www.w3.org/2000/svg"
   xmlns:svg="http://www.w3.org/2000/svg">
  <defs
     id="defs1371" />
  <sodipodi:namedview
     id="namedview1369"
     pagecolor="#ffffff"
     bordercolor="#666666"
     borderopacity="1.0"
     inkscape:pageshadow="2"
     inkscape:pageopacity="0.0"
     inkscape:pagecheckerboard="0"
     showgrid="false"
     inkscape:zoom="1.6992188"
     inkscape:cx="-8.2390802"
     inkscape:cy="255.99999"
     inkscape:window-width="1920"
     inkscape:window-height="1052"
     inkscape:window-x="0"
     inkscape:window-y="0"
     inkscape:window-maximized="1"
     inkscape:current-layer="svg1367" />
  <g
     class=""
     id="g1365"
     style="fill:#000000">
    <path
       d="m 258.063,19.5 c -117.45,0 -215.188,85.162 -234.844,197.03 l -0.44,0.345 0.314,0.406 c -1.46,8.462 -2.49,17.075 -3.032,25.814 4.73,-4 9.484,-7.87 14.25,-11.625 l 0.063,0.06 c 146.48,-115.9 305.707,-112.07 447.344,0 l 0.03,-0.03 c 4.787,3.76 9.572,7.615 14.313,11.625 -0.54,-8.76 -1.568,-17.394 -3.032,-25.875 l 0.283,-0.375 c -0.135,-0.106 -0.272,-0.206 -0.407,-0.313 C 473.26,104.68 375.522,19.5 258.062,19.5 Z m 0,18.688 c 101.242,0 186.342,68.277 211.906,161.343 -66.862,-46.73 -138.216,-70.87 -210.064,-71.31 -72.09,-0.444 -144.657,22.953 -213.72,71.25 25.59,-93.032 110.66,-161.282 211.876,-161.282 z m 1.843,126.906 c -19.728,-0.138 -39.508,1.77 -59.28,5.75 -28.27,18.638 -46.876,50.68 -46.876,87.156 0,36.69 18.828,68.857 47.375,87.438 19.428,3.744 38.904,5.57 58.344,5.468 18.58,-0.098 37.148,-1.952 55.624,-5.53 28.473,-18.593 47.25,-50.737 47.25,-87.376 0,-36.436 -18.573,-68.447 -46.78,-87.094 -18.504,-3.747 -37.068,-5.682 -55.658,-5.812 z M 162,181.314 c -44.358,15.08 -88.47,40.774 -131.625,77.624 42.734,36.39 87.183,61.755 132.22,76.5 -17.2,-21.155 -27.532,-48.113 -27.532,-77.438 0,-28.983 10.098,-55.64 26.937,-76.688 z m 192.188,0.092 c 16.788,21.034 26.842,47.654 26.842,76.594 0,29.296 -10.305,56.23 -27.467,77.375 45.355,-14.86 89.806,-40.357 132.156,-76.406 -42.67,-36.427 -86.778,-62.318 -131.533,-77.564 z m -96.125,17.375 c 6.243,0 12.255,0.957 17.906,2.75 -9.1,4.638 -15.345,14.09 -15.345,25 0,15.492 12.572,28.064 28.063,28.064 11.16,0 20.795,-6.534 25.312,-15.97 2.104,6.077 3.25,12.586 3.25,19.376 0,32.69 -26.498,59.188 -59.188,59.188 -32.69,0 -59.186,-26.499 -59.186,-59.189 0,-32.69 26.498,-59.22 59.188,-59.22 z m 237.875,76.095 c -6.803,5.73 -13.67,11.185 -20.594,16.406 -0.022,0.147 -0.04,0.293 -0.063,0.44 -68.965,55.238 -142.036,83.367 -215.467,83.842 -73.467,0.476 -147.678,-26.688 -218.97,-83.78 -0.022,-0.146 -0.04,-0.292 -0.062,-0.438 -6.914,-5.218 -13.78,-10.697 -20.593,-16.438 8.685,123.722 111.964,221.562 237.874,221.562 125.92,0 229.204,-97.856 237.875,-221.595 z m -448.782,45.22 c 68.69,50.006 140.915,74.62 212.78,74.155 71.622,-0.463 142.556,-25.776 209.033,-74.156 -26.753,91.21 -110.98,157.687 -210.908,157.687 -99.92,0 -184.145,-66.49 -210.906,-157.686 z"
       fill="#000000"
       fill-opacity="1"
       id="path1363"
       style="fill:#000000" />
  </g>
</svg>
