<?xml version="1.0" encoding="UTF-8" standalone="no"?>
<svg
   viewBox="0 0 512 512"
   style="height: 512px; width: 512px;"
   version="1.1"
   id="svg1434"
   sodipodi:docname="reflexes.svg"
   inkscape:version="1.1.2 (0a00cf5339, 2022-02-04)"
   xmlns:inkscape="http://www.inkscape.org/namespaces/inkscape"
   xmlns:sodipodi="http://sodipodi.sourceforge.net/DTD/sodipodi-0.dtd"
   xmlns="http://www.w3.org/2000/svg"
   xmlns:svg="http://www.w3.org/2000/svg">
  <defs
     id="defs1438" />
  <sodipodi:namedview
     id="namedview1436"
     pagecolor="#ffffff"
     bordercolor="#666666"
     borderopacity="1.0"
     inkscape:pageshadow="2"
     inkscape:pageopacity="0.0"
     inkscape:pagecheckerboard="0"
     showgrid="false"
     inkscape:zoom="1.6992188"
     inkscape:cx="123.58621"
     inkscape:cy="256"
     inkscape:window-width="1920"
     inkscape:window-height="1052"
     inkscape:window-x="0"
     inkscape:window-y="0"
     inkscape:window-maximized="1"
     inkscape:current-layer="svg1434" />
  <g
     class=""
     id="g1432"
     style="fill:#999999">
    <path
       d="m 273.922,16.73 c -7.995,22.855 -15.478,44.278 -23.123,66.106 L 168.215,30.752 c 0,0 4.972,46.383 15.103,65.266 -33.202,-6.62 -117.974,-7.97 -117.974,-7.97 0,0 54.758,43.63 82.666,65.917 -31.365,7.24 -61.514,14.158 -91.662,21.1 l 0.162,1.052 c 37.82,10.374 75.642,20.72 114.353,31.336 a 85064.522,85064.522 0 0 1 -53.084,48.113 c 30.23,-2.405 58.945,-4.7 87.473,-6.97 0.69,-1.229 0.379,-2.572 0.217,-3.782 -6.024,-35.145 -0.621,-68.348 17.992,-98.955 26.907,-42.79 70.777,-33.874 78.746,-35.306 -8.51,-26.719 -19.262,-65.484 -28.285,-93.823 z m 21.299,106.413 c -25.598,0.416 -46.066,13.763 -54.877,25.552 -12.589,16.885 -19.234,36.146 -21.315,57.055 -1.728,17.262 -0.134,33.608 4.485,49.195 l 106.437,-18.91 21.37,-3.81 -4.08,21.316 -1.298,6.807 c 7.078,0.836 13.697,0.89 20.477,1.242 5.97,-16.884 7.808,-34.605 6.16,-52.785 12.724,5.564 24.096,12.181 33.47,19.449 13.994,10.885 23.907,22.746 28.716,33.904 3.945,-1.378 7.457,-2.891 10.32,-4.539 6.24,-3.673 9.51,-7.699 10.32,-12.049 0.894,-4.403 -0.619,-9.455 -4.996,-15.154 -0.297,-0.379 -0.622,-0.756 -0.92,-1.135 -5.105,-6.159 -13.399,-12.724 -24.205,-18.965 -14.642,-8.537 -34.118,-16.343 -56.19,-22.691 -4.943,-19.992 -11.671,-41.47 -30.365,-52.41 -15.285,-8.961 -30.1,-12.29 -43.51,-12.072 z m 0.773,59.322 c -2.08,1.918 -3.43,4.564 -3.43,7.617 a 10.457,10.457 0 0 0 10.48,10.482 c 4.593,0 8.376,-3.051 9.78,-7.212 0.243,1.08 0.649,2.08 0.649,3.242 a 14.675,14.675 0 0 1 -14.696,14.695 14.677,14.677 0 0 1 -14.697,-14.695 c 0,-7.105 5.16,-12.805 11.914,-14.13 z m -50.193,1.35 c -1.864,1.756 -3.106,4.16 -3.106,6.89 0,5.267 4.24,9.51 9.508,9.51 4.133,0 7.591,-2.758 8.834,-6.512 0.217,0.946 0.594,1.893 0.594,2.918 0,7.348 -5.97,13.316 -13.291,13.316 -7.375,0 -13.319,-5.97 -13.319,-13.318 0,-6.43 4.675,-11.562 10.78,-12.805 z m 86.771,66.915 -113.136,20.127 96.847,63.672 3.377,-18.693 0.783,-4.16 4.133,0.73 c 32.768,5.591 62.891,5.97 84.961,2.188 11.022,-1.89 20.044,-4.889 26.258,-8.535 6.267,-3.647 9.456,-7.673 10.32,-12.05 l 5.916,-30.716 c -0.864,0.595 -1.757,1.134 -2.676,1.674 -7.536,4.403 -17.451,7.538 -29.203,9.617 -23.421,4.188 -54.216,4.027 -87.445,-0.918 l -4.377,-0.676 0.81,-4.347 z m -84.988,56.487 c -10.67,2.512 -21.207,4.727 -31.31,7.699 -24.692,7.212 -43.116,22.071 -53.436,46.033 -5.889,13.615 -9.588,27.853 -10.588,42.574 -0.513,7.376 -0.107,91.747 -0.107,91.747 0,0 23.67,-0.526 57.529,-1.27 v -87.508 h 29.201 v 86.87 c 55.976,-1.224 125.95,-2.732 168.082,-3.569 v -88.549 h 14.6 v 88.266 c 11.685,-0.22 19.552,-0.352 21.941,-0.352 -0.242,-34.174 1.996,-81.661 -5.648,-114.943 -3.864,-16.776 -10.915,-32.12 -24.422,-43.71 -0.514,-0.459 -1.215,-0.674 -1.729,-1.107 -10.4,1.73 -22.07,2.62 -34.793,2.62 -14.156,0 -29.042,-1.082 -44.386,-3.243 l -1.54,8.403 -3.998,22.26 -18.912,-12.428 z"
       fill="#000000"
       fill-opacity="1"
       id="path1430"
       style="fill:#999999" />
  </g>
</svg>
