<?xml version="1.0" encoding="UTF-8" standalone="no"?>
<svg
   viewBox="0 0 512 512"
   style="height: 512px; width: 512px;"
   version="1.1"
   id="svg1501"
   sodipodi:docname="resist_B.svg"
   inkscape:version="1.1.2 (0a00cf5339, 2022-02-04)"
   xmlns:inkscape="http://www.inkscape.org/namespaces/inkscape"
   xmlns:sodipodi="http://sodipodi.sourceforge.net/DTD/sodipodi-0.dtd"
   xmlns="http://www.w3.org/2000/svg"
   xmlns:svg="http://www.w3.org/2000/svg">
  <defs
     id="defs1505" />
  <sodipodi:namedview
     id="namedview1503"
     pagecolor="#ffffff"
     bordercolor="#666666"
     borderopacity="1.0"
     inkscape:pageshadow="2"
     inkscape:pageopacity="0.0"
     inkscape:pagecheckerboard="0"
     showgrid="false"
     inkscape:zoom="1.6992188"
     inkscape:cx="-8.2390802"
     inkscape:cy="255.99999"
     inkscape:window-width="1920"
     inkscape:window-height="1052"
     inkscape:window-x="0"
     inkscape:window-y="0"
     inkscape:window-maximized="1"
     inkscape:current-layer="svg1501" />
  <g
     class=""
     id="g1499"
     style="fill:#000000">
    <path
       d="M 85.875,20.97 C 83.645,52.566 -9.335,66.203 81.062,120 57.82,73.512 145.628,62.448 85.875,20.97 Z M 278.53,23 c -32.003,14.21 -22.885,55.257 -8.186,73 28,33.796 -31.348,52.158 -49.063,-5.25 -5.377,17.623 -24.532,21.47 -35.624,7.563 -7.015,-8.797 -19.48,-31.605 -12.25,-53.72 -20.884,14.735 -31.686,45.047 -19.28,63.063 29.282,42.526 -11.72,75.307 -58.97,40.906 36.456,47.748 21.176,119.87 -16.344,144.25 14.684,-32.04 8.24,-88.19 -22.218,-99.28 14.39,42.618 -16.59,75.378 -36.75,66.155 V 494.72 h 52.562 c 6.15,-23.78 16.033,-46.735 30.5,-61.44 16.928,-17.203 41.296,-29.383 77.78,-36.25 l 15.595,-2.936 -10.124,-12.22 c -20.233,-24.38 -33.406,-59.518 -33.406,-98.655 0,-37.723 12,-71.733 30.906,-95.94 18.906,-24.205 44.29,-38.53 72.125,-38.53 27.837,0 53.19,14.325 72.095,38.53 18.905,24.208 30.906,58.218 30.906,95.94 0,38.246 -12.073,73.187 -31.374,97.374 l -10.03,12.562 15.874,2.5 c 39.988,6.292 65.567,18.497 82.5,35.844 14.297,14.647 23.413,38.986 28.625,63.22 h 50.75 V 238.78 c -7.012,-23.793 -17.18,-46.354 -32.625,-51.093 19.492,39.968 1.278,129.343 -61.906,141.313 26.715,-22.383 45.213,-78.483 35.03,-101.594 -34.788,47.587 -79.102,2.555 -34.437,-43.22 29.676,-30.412 39.924,-68.813 10.5,-110.967 9.104,40.185 -37.766,84.93 -69.875,56.655 -21.68,-19.09 -10.235,-60.918 23.75,-71.844 -26.954,-9.334 -47.72,2.8 -52.562,21.595 C 295.337,62.535 272.155,51.37 278.53,23 Z m -74.155,242.844 c -9.215,-0.212 -19.062,3.635 -29.063,13.28 14.593,29.555 39.886,25.69 67.938,13.188 -9.878,-14.53 -23.517,-26.116 -38.875,-26.468 z m 99.094,0 c -15.36,0.352 -28.998,11.938 -38.876,26.47 28.05,12.5 53.345,16.365 67.937,-13.19 -10,-9.645 -19.846,-13.492 -29.06,-13.28 z M 197.03,350.75 c 19.292,61.366 100.937,60.7 121.69,0 -42.215,8.574 -80.72,9.61 -121.69,0 z"
       fill="#000000"
       fill-opacity="1"
       id="path1497"
       style="fill:#000000" />
  </g>
</svg>
