<?xml version="1.0" encoding="UTF-8" standalone="no"?>
<svg
   viewBox="0 0 512 512"
   style="height: 512px; width: 512px;"
   version="1.1"
   id="svg1568"
   sodipodi:docname="shoot_B.svg"
   inkscape:version="1.1.2 (0a00cf5339, 2022-02-04)"
   xmlns:inkscape="http://www.inkscape.org/namespaces/inkscape"
   xmlns:sodipodi="http://sodipodi.sourceforge.net/DTD/sodipodi-0.dtd"
   xmlns="http://www.w3.org/2000/svg"
   xmlns:svg="http://www.w3.org/2000/svg">
  <defs
     id="defs1572" />
  <sodipodi:namedview
     id="namedview1570"
     pagecolor="#ffffff"
     bordercolor="#666666"
     borderopacity="1.0"
     inkscape:pageshadow="2"
     inkscape:pageopacity="0.0"
     inkscape:pagecheckerboard="0"
     showgrid="false"
     inkscape:zoom="1.6992188"
     inkscape:cx="-8.2390802"
     inkscape:cy="255.99999"
     inkscape:window-width="1920"
     inkscape:window-height="1052"
     inkscape:window-x="0"
     inkscape:window-y="0"
     inkscape:window-maximized="1"
     inkscape:current-layer="svg1568" />
  <g
     class=""
     id="g1566"
     style="fill:#000000">
    <path
       d="m 341,25.97 c -25.5,42.42 -21.2,82.13 -10.9,117.13 10.3,35.1 25.6,66.5 25.6,95.5 h 0.1 c 6.3,-1.4 12.1,-1.9 17.9,-0.9 -0.3,-34.7 -16.8,-67 -26.4,-99.6 -9.7,-33 -13.4,-65.29 9.1,-102.87 z M 307.7,62.24 154.2,227.7 c 7.6,0 15.6,0.9 23.2,2.9 7.2,-2.9 13.8,-8 19.3,-15.1 4.1,-5.3 7.5,-11.6 10,-18.7 L 304,91.96 c 0.1,-9.68 1.2,-19.6 3.7,-29.72 z M 164.2,107.1 c -12.3,0 -23.7,6.3 -32.5,17.6 -8.8,11.3 -14.5,27.4 -14.5,45.4 0,18 5.7,34.1 14.5,45.4 1.4,1.8 2.9,3.5 4.4,5 L 207,144.2 c -2.5,-7.4 -6.1,-14 -10.3,-19.5 -8.8,-11.3 -20.2,-17.6 -32.5,-17.6 z m 264.5,119.5 v 19 h -34 c 5.9,4.9 9,11.3 10.2,18 h 23.8 v 19 l 64,-28 z m -225.2,19 c 1.4,2 2.5,4.3 3.3,6.8 0.8,2.4 0.5,5.1 -0.2,6.7 -0.7,1.9 -1.8,3.1 -3.2,4.5 h 131.5 c 0.1,-0.2 0.1,-0.4 0.1,-0.6 1.9,-8.2 2.5,-12.6 8,-17.4 z m -58.3,0.5 c -8.5,1.3 -14.4,4.5 -21,6.7 l -74.48,-1 c -23.01,-0.1 -31.67,34.4 -7.93,35.4 16.14,0.3 27.69,-2 39.55,-4 11.86,-2 24.16,-3.8 39.56,-1.3 9.3,2.2 18.1,7.4 25.3,12 8.7,2.2 17.5,2 23.8,0.2 5.7,-1.6 8.7,-4.1 9.9,-6.1 -5,-7.6 -12.3,-14.2 -9.6,-22.3 3,-6.4 9.5,-9.1 15,-12.1 0.1,0 0.2,-0.1 0.3,-0.1 -2.6,-1.9 -6.4,-3.8 -11.3,-5.1 -10.2,-2.3 -19.5,-3.2 -29.1,-2.3 z m 209,13.7 c 0.9,-1 -0.8,1.7 -1.3,5.7 -0.6,4 -0.8,9.2 -0.4,14.4 1.3,6.9 0.7,16.2 6.2,21.4 6.5,4.1 24.2,5.1 27.2,-1.2 1.3,-12.3 4.1,-23.5 0.8,-35.2 -0.8,-3 -1.9,-4.3 -2.2,-4.5 -8.6,-4.6 -22.7,-8.8 -30.3,-0.6 z m -19.7,21.1 c -51,0.9 -87.9,0.2 -137.8,0.6 5.7,15.3 -9.3,26.3 -21.9,29.9 -0.1,0 -0.2,0 -0.3,0.1 l 130.8,171 c -1.4,-9.8 -1.5,-19.3 -0.9,-28.6 L 220.2,343.8 c 0.7,-14.3 0,-25.5 -0.9,-39.3 40.6,2.7 82.7,1.5 119.6,-1.7 -2.5,-7 -3.9,-15 -4.4,-21.6 z M 112.9,299 c -12.5,41.7 -2.7,92.3 -7.3,138 v -0.2 L 101,494 h 121.1 l -16.7,-63.3 c 3.5,-12.9 6.8,-26.4 8.9,-37.6 L 153.2,313.2 C 135.5,312.9 127.6,300.7 112.9,299 Z m 242.8,21.2 c -0.6,28.6 -15.5,59.4 -25.6,93.9 -7.2,24.5 -11.5,51.4 -4.6,79.9 h 18.4 c -7.7,-26.2 -3.8,-50.4 3.4,-74.9 9.3,-31.5 25,-62.8 26.3,-96.1 -6,0.3 -12.2,-0.5 -17.9,-2.8 z"
       fill="#000000"
       fill-opacity="1"
       id="path1564"
       style="fill:#000000" />
  </g>
</svg>
