<?xml version="1.0" encoding="UTF-8" standalone="no"?>
<svg
   viewBox="0 0 512 512"
   style="height: 512px; width: 512px;"
   version="1.1"
   id="svg2788"
   sodipodi:docname="skull_grey.svg"
   inkscape:version="1.1.2 (0a00cf5339, 2022-02-04)"
   xmlns:inkscape="http://www.inkscape.org/namespaces/inkscape"
   xmlns:sodipodi="http://sodipodi.sourceforge.net/DTD/sodipodi-0.dtd"
   xmlns="http://www.w3.org/2000/svg"
   xmlns:svg="http://www.w3.org/2000/svg">
  <defs
     id="defs2792" />
  <sodipodi:namedview
     id="namedview2790"
     pagecolor="#ffffff"
     bordercolor="#666666"
     borderopacity="1.0"
     inkscape:pageshadow="2"
     inkscape:pageopacity="0.0"
     inkscape:pagecheckerboard="0"
     showgrid="false"
     inkscape:zoom="1.6992188"
     inkscape:cx="256"
     inkscape:cy="256"
     inkscape:window-width="1920"
     inkscape:window-height="1052"
     inkscape:window-x="0"
     inkscape:window-y="0"
     inkscape:window-maximized="1"
     inkscape:current-layer="svg2788" />
  <g
     class=""
     transform="translate(0,0)"
     style="fill:#999999"
     id="g2786">
    <path
       d="M255.997 16.004c-120 0-239.997 60-239.997 149.998C16 226.002 61 256 61 316c0 45-15 45-15 75 0 14.998 48.01 32.002 89.998 44.998v60h239.997v-60s90.567-27.957 90-45c-.933-27.947-15-30-15-74.998 0-30 45.642-91.42 44.998-149.998 0-90-119.998-149.998-239.996-149.998zm-90 179.997c33.137 0 60 26.864 60 60 0 33.136-26.863 60-60 60C132.863 316 106 289.136 106 256c0-33.136 26.862-60 59.998-60zm179.998 0c33.136 0 60 26.864 60 60 0 33.136-26.864 60-60 60-33.136 0-60-26.864-60-60 0-33.136 26.864-60 60-60zm-89.998 105c15 0 45 60 45 75 0 29.998 0 29.998-15 29.998h-60c-15 0-15 0-15-30 0-15 30-74.998 45-74.998z"
       fill="#7e0212"
       fill-opacity="1"
       id="path2784"
       style="fill:#999999" />
  </g>
</svg>
