<?xml version="1.0" encoding="UTF-8" standalone="no"?>
<svg
   viewBox="0 0 512 512"
   style="height: 512px; width: 512px;"
   version="1.1"
   id="svg1079"
   sodipodi:docname="skull.svg"
   inkscape:version="1.1.2 (0a00cf5339, 2022-02-04)"
   xmlns:inkscape="http://www.inkscape.org/namespaces/inkscape"
   xmlns:sodipodi="http://sodipodi.sourceforge.net/DTD/sodipodi-0.dtd"
   xmlns="http://www.w3.org/2000/svg"
   xmlns:svg="http://www.w3.org/2000/svg">
  <defs
     id="defs1083" />
  <sodipodi:namedview
     id="namedview1081"
     pagecolor="#ffffff"
     bordercolor="#666666"
     borderopacity="1.0"
     inkscape:pageshadow="2"
     inkscape:pageopacity="0.0"
     inkscape:pagecheckerboard="0"
     showgrid="false"
     inkscape:zoom="1.6992188"
     inkscape:cx="134.17931"
     inkscape:cy="256"
     inkscape:window-width="1920"
     inkscape:window-height="1052"
     inkscape:window-x="0"
     inkscape:window-y="0"
     inkscape:window-maximized="1"
     inkscape:current-layer="svg1079" />
  <g
     class=""
     id="g1077"
     style="stroke:#ffffff;stroke-opacity:1;stroke-width:3;stroke-miterlimit:4;stroke-dasharray:none">
    <path
       d="m 255.997,16.004 c -120,0 -239.997,60 -239.997,149.998 0,60 45,89.998 45,149.998 0,45 -15,45 -15,75 0,14.998 48.01,32.002 89.998,44.998 v 60 h 239.997 v -60 c 0,0 90.567,-27.957 90,-45 -0.933,-27.947 -15,-30 -15,-74.998 0,-30 45.642,-91.42 44.998,-149.998 0,-90 -119.998,-149.998 -239.996,-149.998 z m -90,179.997 c 33.137,0 60,26.864 60,60 0,33.136 -26.863,60 -60,60 C 132.863,316 106,289.136 106,256 c 0,-33.136 26.862,-60 59.998,-60 z m 179.998,0 c 33.136,0 60,26.864 60,60 0,33.136 -26.864,60 -60,60 -33.136,0 -60,-26.864 -60,-60 0,-33.136 26.864,-60 60,-60 z m -89.998,105 c 15,0 45,60 45,75 0,29.998 0,29.998 -15,29.998 h -60 c -15,0 -15,0 -15,-30 0,-15 30,-74.998 45,-74.998 z"
       fill="#7e0212"
       fill-opacity="1"
       id="path1075"
       style="stroke:#ffffff;stroke-opacity:1;stroke-width:3;stroke-miterlimit:4;stroke-dasharray:none" />
  </g>
</svg>
