<?xml version="1.0" encoding="UTF-8" standalone="no"?>
<svg
   viewBox="0 0 512 512"
   style="height: 512px; width: 512px;"
   version="1.1"
   id="svg6"
   sodipodi:docname="stealth.svg"
   inkscape:version="1.1.2 (0a00cf5339, 2022-02-04)"
   xmlns:inkscape="http://www.inkscape.org/namespaces/inkscape"
   xmlns:sodipodi="http://sodipodi.sourceforge.net/DTD/sodipodi-0.dtd"
   xmlns="http://www.w3.org/2000/svg"
   xmlns:svg="http://www.w3.org/2000/svg">
  <defs
     id="defs10" />
  <sodipodi:namedview
     id="namedview8"
     pagecolor="#ffffff"
     bordercolor="#666666"
     borderopacity="1.0"
     inkscape:pageshadow="2"
     inkscape:pageopacity="0.0"
     inkscape:pagecheckerboard="0"
     showgrid="false"
     inkscape:zoom="1.6992188"
     inkscape:cx="256"
     inkscape:cy="256"
     inkscape:window-width="1920"
     inkscape:window-height="1052"
     inkscape:window-x="0"
     inkscape:window-y="0"
     inkscape:window-maximized="1"
     inkscape:current-layer="svg6" />
  <g
     class=""
     id="g4"
     style="fill:#999999">
    <path
       d="m 260.7,31.1 c 5.2,0.51 9.9,2.45 14.5,4.9 l 9.1,-16.3 c -6.4,-3.81 -13.9,-6.07 -20.7,-7.3 -0.9,6.24 -1.9,12.47 -2.9,18.7 z m -9.1,-18.4 c -7.6,0.51 -14.1,2.52 -21.1,6 l 8.3,16.7 c 5.1,-1.88 9.6,-3.72 14.6,-4 z m -38.5,18.7 c -5,5.17 -9.8,11.69 -12.7,17 l 16.3,9.1 c 3.1,-4.71 5.9,-9.09 9.6,-12.8 -4.3,-4.46 -9,-8.78 -13.2,-13.3 z m 88.1,1.9 -14,12.4 c 3.8,3.98 6.6,8.63 9.3,13.4 l 16.7,-8.5 c -3.5,-6.29 -7.8,-12.54 -12,-17.3 z M 192.4,67.4 c -2.1,6.71 -3.3,14.19 -3.8,20.2 l 18.6,1.8 c 0.6,-6.22 1.4,-10.74 3,-16.5 z m 128.2,2.2 c -6,1.86 -12,3.42 -18.1,4.9 1.1,5.58 2.2,11.79 2.7,16.6 l 18.7,-1 c -0.8,-7.04 -1.8,-14.28 -3.3,-20.5 z m -113.2,36.6 -18.5,1.9 c 0.4,7 2.6,14.3 4.3,20.1 l 17.8,-5.7 c -1.7,-5.8 -2.9,-11 -3.6,-16.3 z m 97.2,1.7 c -0.8,5.7 -2.4,11.2 -4,16.2 l 17.5,6.6 c 2.3,-6.7 4.1,-14 5,-20 z m -86.7,29.4 c 0,0 -11.5,5.4 -16.1,6.7 0,0 4.8,9.6 6.9,17.1 7.6,-2.2 15.5,-3.2 23.3,-4.5 -4.7,-6.9 -10.5,-13.4 -14.1,-19.3 z m 75.3,1.7 c -4.2,6.3 -9.2,12 -13.9,17.9 7.8,2.1 16,2.7 23.6,5.5 0,0 4.4,-12.9 6.1,-17.7 -5.7,-1.9 -15.8,-5.7 -15.8,-5.7 z m -108.9,12.7 c -6.6,4.4 -11.1,8.1 -16.1,13.4 l 13.5,12.9 c 4.6,-4.5 7.8,-7.5 12.6,-10.5 z m 143.6,2.8 -10.8,15.2 c 4.6,3.1 8.7,6.9 12.3,11.1 l 13.9,-12.5 c -5.4,-5.6 -9.4,-9.8 -15.4,-13.8 z m -172.1,27.4 c -3.5,5.7 -6.3,11.8 -8.7,18 l 17.4,6.9 c 2,-5.4 4.5,-10.7 7.5,-15.6 z m 199.5,3.2 -16.2,9.2 c 2.8,5.1 5.4,10.4 7.6,15.8 L 364,203 c -2.4,-6.2 -5.5,-12.1 -8.7,-17.9 z m -214.2,33.8 c -1.6,6.2 -3,12.7 -3.8,19.2 l 18.4,2.8 c 0.8,-5.9 2.2,-11.7 3.5,-17.5 z m 229.1,3 -18.1,4.8 c 1.8,5.7 2.6,11.5 3.8,17.4 l 18.4,-3.1 c -1.1,-6.4 -2.3,-12.8 -4.1,-19.1 z m -235.1,35.5 c -0.5,6.8 -0.6,12.6 -0.6,19.3 h 18.7 c 0.1,-6.3 0.2,-12.9 0.6,-18 z m 241.6,2.9 -18.7,1.5 c 0.5,5.8 0.8,12 0.8,18 l 18.7,-0.1 c -0.1,-7 -0.4,-13.2 -0.8,-19.4 z m -223,34.6 -18.7,1 c 0.4,6.4 1,12.7 1.7,19.1 l 18.6,-2 c -0.8,-6 -1.2,-12.1 -1.6,-18.1 z m 204.5,2.9 c -0.2,6 -1,12 -1.7,18 l 18.5,2.4 c 1,-6.3 1.4,-12.7 1.9,-19.1 z M 139,329.6 c 0.5,6.3 2,12.9 2.9,18.3 h 20.3 v -18.7 c -7.7,-0.2 -15.4,0.1 -23.2,0.4 z m 41.9,-0.4 c -0.1,6.4 0,12.3 0,18.7 l 19.2,-0.5 c -0.5,-6.1 -0.9,-12.1 -1.2,-18.2 z m 130,0 c -0.5,6.3 -1,12.7 -1.5,19 l 18.7,1.4 -0.2,-20.4 z m 35.7,0 v 18.7 h 23.2 c 1.3,-6.4 2.3,-11.6 3.4,-18 -8.8,-0.9 -17.7,-0.7 -26.6,-0.7 z m -145.3,36.9 -18.6,1.2 1.2,18.7 18.6,-1.3 z m 106.7,0.7 -1.3,18.6 18.6,1.4 1.4,-18.6 z m -60.2,11.9 v 18.7 h 18.6 v -18.7 z m -44,24.7 -18.7,1.2 1.3,18.7 18.6,-1.3 z m 101.5,0.7 -1.4,18.6 18.6,1.4 1.4,-18.6 z m -57.5,12 v 18.7 h 18.6 v -18.7 z m -41.6,24.6 -18.6,1.2 1.2,18.7 18.7,-1.3 z m 96.3,0.6 -1.4,18.7 18.6,1.4 1.4,-18.7 z m -54.7,12.2 v 18.7 h 18.6 V 453.5 Z M 208.7,478 190,479.2 c 0.5,6.8 0.9,13.6 1.4,20.4 h 15.7 z m 91,0.6 0.8,21 h 16.4 c 0.4,-6.5 1,-13.1 1.5,-19.6 z m -73.9,2.3 v 18.7 h 18.6 v -18.7 z m 37.3,0 v 18.7 h 18.7 v -18.7 z"
       fill="#000000"
       fill-opacity="1"
       id="path2"
       style="fill:#999999" />
  </g>
</svg>
