<?xml version="1.0" encoding="UTF-8" standalone="no"?>
<svg
   viewBox="0 0 512 512"
   style="height: 512px; width: 512px;"
   version="1.1"
   id="svg1635"
   sodipodi:docname="strength_B.svg"
   inkscape:version="1.1.2 (0a00cf5339, 2022-02-04)"
   xmlns:inkscape="http://www.inkscape.org/namespaces/inkscape"
   xmlns:sodipodi="http://sodipodi.sourceforge.net/DTD/sodipodi-0.dtd"
   xmlns="http://www.w3.org/2000/svg"
   xmlns:svg="http://www.w3.org/2000/svg">
  <defs
     id="defs1639" />
  <sodipodi:namedview
     id="namedview1637"
     pagecolor="#ffffff"
     bordercolor="#666666"
     borderopacity="1.0"
     inkscape:pageshadow="2"
     inkscape:pageopacity="0.0"
     inkscape:pagecheckerboard="0"
     showgrid="false"
     inkscape:zoom="1.6992188"
     inkscape:cx="-8.2390802"
     inkscape:cy="255.99999"
     inkscape:window-width="1920"
     inkscape:window-height="1052"
     inkscape:window-x="0"
     inkscape:window-y="0"
     inkscape:window-maximized="1"
     inkscape:current-layer="svg1635" />
  <g
     class=""
     id="g1633"
     style="fill:#000000">
    <path
       d="M 77.492,18.457 59.766,21.584 69.09,74.47 a 1630.67,1630.67 0 0 0 -15.8,2.54 l -6.503,-36.89 -17.726,3.124 6.49,36.795 a 1877.847,1877.847 0 0 0 -17.196,3.112 l 3.292,17.696 c 5.728,-1.066 11.397,-2.09 17.028,-3.084 l 7.056,40.02 17.727,-3.124 -7.04,-39.93 c 5.304,-0.88 10.57,-1.725 15.798,-2.54 l 9.777,55.45 17.727,-3.126 -9.697,-54.99 c 8.483,-1.218 16.866,-2.338 25.18,-3.38 15.54,46.39 34.697,99.995 66.936,134.448 C 190.86,250.992 192,268 214.56,310 192,348 176,412 167.21,471 l -48,6 v 15 H 192 c 16,-48 64,-144 64,-144 0,0 48,96 64,144 h 72.79 v -15 l -48,-6 C 336,412 320,348 294,310 c 26,-42 24.175,-59.585 35.83,-89.377 32.25,-34.452 51.42,-88.075 66.967,-134.478 8.314,1.04 16.697,2.16 25.18,3.38 l -9.696,54.99 17.728,3.124 9.777,-55.45 c 5.23,0.815 10.494,1.66 15.8,2.54 l -7.042,39.93 17.727,3.125 7.056,-40.02 c 5.63,0.993 11.3,2.017 17.028,3.083 l 3.292,-17.696 c -5.78,-1.075 -11.507,-2.11 -17.195,-3.113 l 6.49,-36.796 -17.727,-3.125 -6.504,36.89 c -5.303,-0.88 -10.57,-1.727 -15.8,-2.54 l 9.324,-52.886 -17.726,-3.127 -9.406,53.35 C 365.982,63.31 310.982,59.04 256,59.04 201.02,59.04 146.017,63.31 86.898,71.807 Z M 256,76.98 c 35.53,0 71.07,1.83 107.822,5.463 C 349.74,117.301 325.368,155.947 300.619,184.41 290.293,199.27 274.35,209 256,209 237.65,209 221.706,199.27 211.38,184.41 186.632,155.947 162.26,117.3 148.178,82.443 184.928,78.81 220.468,76.98 256,76.98 Z M 256,97 c -20.835,0 -39,20.24 -39,47 0,26.76 18.165,47 39,47 20.835,0 39,-20.24 39,-47 0,-26.76 -18.165,-47 -39,-47 z"
       fill="#000000"
       fill-opacity="1"
       id="path1631"
       style="fill:#000000" />
  </g>
</svg>
