<?xml version="1.0" encoding="UTF-8" standalone="no"?>
<svg
   viewBox="0 0 512 512"
   style="height: 512px; width: 512px;"
   version="1.1"
   id="svg1836"
   sodipodi:docname="throw.svg"
   inkscape:version="1.1.2 (0a00cf5339, 2022-02-04)"
   xmlns:inkscape="http://www.inkscape.org/namespaces/inkscape"
   xmlns:sodipodi="http://sodipodi.sourceforge.net/DTD/sodipodi-0.dtd"
   xmlns="http://www.w3.org/2000/svg"
   xmlns:svg="http://www.w3.org/2000/svg">
  <defs
     id="defs1840" />
  <sodipodi:namedview
     id="namedview1838"
     pagecolor="#ffffff"
     bordercolor="#666666"
     borderopacity="1.0"
     inkscape:pageshadow="2"
     inkscape:pageopacity="0.0"
     inkscape:pagecheckerboard="0"
     showgrid="false"
     inkscape:zoom="1.6992188"
     inkscape:cx="123.58621"
     inkscape:cy="256"
     inkscape:window-width="1920"
     inkscape:window-height="1052"
     inkscape:window-x="0"
     inkscape:window-y="0"
     inkscape:window-maximized="1"
     inkscape:current-layer="svg1836" />
  <g
     class=""
     id="g1834"
     style="fill:#999999">
    <path
       d="M 19.656,20.688 V 57.125 L 73.5,110.97 C 80.015,96.04 91.488,83.74 105.813,76.156 L 50.25,20.686 Z m 119.47,65.906 c -29.312,0 -52.876,23.533 -52.876,52.844 0,21.654 12.868,40.178 31.406,48.375 1.88,-37.477 32.825,-67.482 70.656,-67.907 -7.734,-19.565 -26.786,-33.312 -49.187,-33.312 z m 213.843,44.25 -40.909,14.626 97.032,253.436 7.5,19.625 L 397,410.97 143.72,313.437 129.375,354.407 492.28,494.312 352.97,130.842 Z m -163.845,7.72 c -29.31,0 -52.875,23.563 -52.875,52.874 0,24.35 16.282,44.705 38.594,50.906 2.935,-34.576 30.61,-62.252 65.187,-65.188 -6.2,-22.312 -26.553,-38.594 -50.905,-38.594 z m 113.5,34.53 -23.874,100.594 -1.344,5.625 -5.625,1.312 -100.124,23.53 L 384.156,386 302.626,173.094 Z m -56.5,22.47 c -29.31,0 -52.875,23.563 -52.875,52.874 0,10.896 3.28,20.983 8.875,29.375 l 59.78,-14.063 14.033,-59.03 c -8.473,-5.784 -18.724,-9.157 -29.813,-9.157 z"
       fill="#000000"
       fill-opacity="1"
       id="path1832"
       style="fill:#999999" />
  </g>
</svg>
