<?xml version="1.0" encoding="UTF-8" standalone="no"?>
<svg
   viewBox="0 0 512 512"
   style="height: 512px; width: 512px;"
   version="1.1"
   id="svg1903"
   sodipodi:docname="unarmed.svg"
   inkscape:version="1.1.2 (0a00cf5339, 2022-02-04)"
   xmlns:inkscape="http://www.inkscape.org/namespaces/inkscape"
   xmlns:sodipodi="http://sodipodi.sourceforge.net/DTD/sodipodi-0.dtd"
   xmlns="http://www.w3.org/2000/svg"
   xmlns:svg="http://www.w3.org/2000/svg">
  <defs
     id="defs1907" />
  <sodipodi:namedview
     id="namedview1905"
     pagecolor="#ffffff"
     bordercolor="#666666"
     borderopacity="1.0"
     inkscape:pageshadow="2"
     inkscape:pageopacity="0.0"
     inkscape:pagecheckerboard="0"
     showgrid="false"
     inkscape:zoom="1.6992188"
     inkscape:cx="256"
     inkscape:cy="256"
     inkscape:window-width="1920"
     inkscape:window-height="1052"
     inkscape:window-x="0"
     inkscape:window-y="0"
     inkscape:window-maximized="1"
     inkscape:current-layer="svg1903" />
  <g
     class=""
     id="g1901"
     style="fill:#b3b3b3">
    <path
       d="m 329.8,235.69 62.83,-82.71 42.86,32.56 -62.83,82.75 z m -12.86,-9.53 66.81,-88 -45,-34.15 -66.81,88 z m -27.48,-97.78 -19.3,39.57 57,-75 -42.51,-32.3 -36.24,47.71 z m -20.74,-73.24 -46.64,-35.43 -42,55.31 53.67,26.17 z m 107,235.52 -139,-102.71 -9.92,0.91 4.56,2 62.16,138.43 -16.52,2.25 -57.68,-128.5 -40,-17.7 -4,-30.84 39.41,19.42 36.36,-3.33 17,-34.83 L 157.19,81.67 76.51,194.18 177.6,346.67 154.9,492.29 H 341 V 372.62 L 376.29,323.69 387,275.77 Z"
       fill="#000000"
       fill-opacity="1"
       id="path1899"
       style="fill:#b3b3b3" />
  </g>
</svg>
