<?xml version="1.0" encoding="UTF-8" standalone="no"?>
<svg
   viewBox="0 0 512 512"
   style="height: 512px; width: 512px;"
   version="1.1"
   id="svg6"
   sodipodi:docname="void-heart.svg"
   inkscape:version="1.1.2 (0a00cf5339, 2022-02-04)"
   xmlns:inkscape="http://www.inkscape.org/namespaces/inkscape"
   xmlns:sodipodi="http://sodipodi.sourceforge.net/DTD/sodipodi-0.dtd"
   xmlns="http://www.w3.org/2000/svg"
   xmlns:svg="http://www.w3.org/2000/svg">
  <defs
     id="defs10" />
  <sodipodi:namedview
     id="namedview8"
     pagecolor="#ffffff"
     bordercolor="#666666"
     borderopacity="1.0"
     inkscape:pageshadow="2"
     inkscape:pageopacity="0.0"
     inkscape:pagecheckerboard="0"
     showgrid="false"
     inkscape:zoom="1.6992188"
     inkscape:cx="256.5885"
     inkscape:cy="255.99999"
     inkscape:window-width="1920"
     inkscape:window-height="1052"
     inkscape:window-x="0"
     inkscape:window-y="0"
     inkscape:window-maximized="1"
     inkscape:current-layer="svg6" />
  <path
     d="m 147.887,25.734 c -10.106,-0.02 -20.148,1.213 -29.89,3.647 C 66.04,42.366 22.312,89.155 20.212,156.36 c -1.12,35.803 9.934,65.568 27.54,91.12 17.61,25.552 41.552,47.158 66.85,68.442 50.596,42.573 106.39,83.87 132.397,148.293 l 8.904,22.05 8.49,-22.212 c 24.65,-64.483 78.63,-107.776 128.604,-151.27 49.974,-43.493 96.634,-88.203 98.783,-155.834 2.276,-71.537 -42.363,-116.7 -95.522,-127.137 -49,-9.622 -105.34,9.122 -140.23,57.744 -27.547,-42.14 -68.33,-61.74 -108.14,-61.823 z m 2.168,17.975 c 38.356,0.402 73.808,24.73 93.14,56.956 3.06,4.91 12,18.78 12,18.78 l 7.334,-10.35 c 16.673,-26.633 42.103,-48.728 72.284,-58.325 40.247,-13.228 90.467,-2.59 117.055,32.314 24.617,32.027 27.77,76.852 14.025,113.666 -17.43,43.71 -53.837,75.718 -88.553,105.793 -46.72,39.376 -94.345,81.183 -121.916,136.86 -5.064,-9.63 -10.672,-18.98 -16.9,-27.9 C 198.084,351.879 133.842,315.247 84.799,263.895 51.601,232.987 32.215,186.242 39.539,140.815 c 5.82,-52.31 53.85,-97.206 106.794,-97.07 1.243,-0.036 2.483,-0.05 3.72,-0.036 z"
     fill="#d0021b"
     fill-opacity="1"
     id="path2"
     sodipodi:nodetypes="ccccccccccccccsccccccccccccss"
     style="stroke:#000000;stroke-opacity:1;stroke-width:3;stroke-miterlimit:4;stroke-dasharray:none" />
</svg>
